<?xml version="1.0" standalone="no"?>
<!DOCTYPE svg PUBLIC "-//W3C//DTD SVG 20010904//EN"
 "http://www.w3.org/TR/2001/REC-SVG-20010904/DTD/svg10.dtd">
<svg version="1.0" xmlns="http://www.w3.org/2000/svg"
 width="500.000000pt" height="500.000000pt" viewBox="0 0 500.000000 500.000000"
 preserveAspectRatio="xMidYMid meet">
<metadata>
Created by potrace 1.14, written by Peter Selinger 2001-2017
</metadata>
<g transform="translate(0.000000,500.000000) scale(0.100000,-0.100000)"
fill="#000000" stroke="none">
<path d="M0 2500 l0 -2500 2500 0 2500 0 0 2500 0 2500 -2500 0 -2500 0 0
-2500z m2175 1877 c63 1 65 0 23 -6 -26 -4 -49 -9 -52 -12 -7 -7 90 -3 148 6
41 7 51 5 62 -9 7 -10 18 -15 24 -11 17 10 100 16 100 7 0 -4 17 -9 37 -10 21
-2 42 -7 47 -12 6 -6 17 -10 25 -10 21 0 51 -30 51 -52 0 -13 8 -18 30 -18 29
0 30 -2 27 -37 -2 -30 2 -42 21 -57 18 -14 26 -16 31 -7 6 9 11 8 21 -4 7 -8
10 -15 7 -15 -3 0 0 -12 8 -27 16 -31 10 -49 -11 -32 -11 9 -14 8 -14 -4 0 -8
-3 -17 -7 -20 -5 -2 -3 -3 3 -1 18 4 32 -10 39 -39 6 -21 4 -27 -10 -27 -28 0
-13 -35 16 -36 34 -1 49 -11 43 -28 -5 -13 -58 -13 -93 -1 -7 3 -20 0 -27 -6
-11 -9 -15 -7 -20 5 -3 9 -12 16 -19 16 -7 0 -18 7 -25 15 -7 9 -27 25 -43 37
l-29 21 6 -24 7 -24 -21 24 c-12 14 -17 27 -11 30 6 4 6 12 1 21 -5 8 -12 11
-16 7 -4 -4 -14 -1 -22 6 -12 9 -16 9 -19 0 -3 -8 -11 -10 -21 -5 -9 5 -31 8
-49 7 -23 -2 -30 1 -26 11 3 8 0 14 -7 14 -6 0 -8 5 -5 11 4 6 14 8 22 5 8 -3
24 1 36 9 35 25 -19 23 -73 -3 -24 -11 -30 -17 -19 -20 24 -5 30 -38 10 -56
-35 -32 -52 -15 -43 42 2 17 1 32 -4 33 -56 5 -72 3 -90 -8 -19 -12 -22 -12
-28 3 -7 18 12 37 27 27 4 -3 20 -2 35 2 18 4 22 9 13 14 -9 6 -10 11 -2 15 6
4 11 15 11 25 0 13 9 18 35 19 20 1 40 4 45 7 4 3 16 2 25 -1 13 -5 15 -14 11
-37 l-6 -31 21 23 c19 20 20 24 5 40 -9 10 -16 23 -16 29 0 6 -8 11 -17 11
-31 -1 -54 7 -62 20 -5 7 -18 10 -33 6 -19 -5 -27 -2 -32 12 -7 16 -9 16 -21
-7 -7 -14 -17 -25 -22 -24 -19 2 -43 -9 -42 -20 4 -29 -2 -46 -16 -46 -8 0
-15 9 -15 20 0 18 -6 21 -43 19 -26 -2 -52 4 -69 15 -17 11 -35 15 -52 10 -20
-5 -26 -3 -24 7 2 7 -6 15 -18 17 -12 2 -28 17 -37 38 -16 33 -43 41 -30 9 3
-8 1 -15 -5 -15 -13 0 -3 -40 16 -62 8 -10 19 -15 25 -11 6 4 8 0 4 -10 -5
-13 -1 -17 18 -17 13 0 27 -5 30 -11 4 -6 14 -8 22 -5 8 4 11 2 7 -5 -5 -8 8
-9 45 -4 43 6 51 4 51 -9 0 -9 5 -16 10 -16 6 0 9 6 8 13 -2 6 3 12 11 12 18
0 32 -48 20 -66 -6 -10 -9 -11 -9 -1 0 6 -7 12 -15 12 -8 0 -15 5 -15 10 0 6
-5 10 -11 10 -5 0 -7 -5 -4 -10 3 -6 -2 -18 -11 -28 -17 -16 -18 -16 -11 1 3
9 2 17 -3 17 -10 0 -13 -12 -11 -40 0 -10 -1 -11 -5 -2 -7 15 -24 16 -24 0 0
-6 -7 -20 -17 -30 -24 -26 -13 -30 43 -13 65 20 80 20 64 0 -7 -8 -18 -15 -24
-15 -8 0 -12 -15 -12 -40 l0 -40 23 22 c13 12 26 19 29 15 4 -3 15 -2 26 4 11
6 47 12 80 15 33 2 67 9 74 15 12 9 13 9 8 -4 -4 -11 1 -16 18 -19 33 -4 28
-19 -12 -34 -19 -7 -31 -13 -26 -13 5 -1 3 -7 -4 -15 -6 -8 -18 -12 -26 -9
-17 6 -18 -9 -2 -25 9 -9 7 -16 -10 -32 -12 -12 -28 -20 -35 -19 -27 3 -36 -2
-31 -16 15 -37 -38 -57 -84 -32 l-23 13 34 19 c21 11 33 24 30 32 -6 16 9 17
26 1 10 -11 12 -8 9 13 -1 14 3 34 11 43 29 35 -76 -2 -117 -41 -7 -7 -19 -13
-25 -14 -71 -6 -89 -9 -104 -18 -10 -6 -13 -11 -6 -11 16 0 5 -30 -11 -30 -6
0 -17 -4 -25 -9 -12 -7 -11 -12 1 -30 8 -11 18 -18 21 -14 4 3 7 1 7 -5 0 -6
-4 -13 -9 -16 -13 -8 -7 -94 8 -109 10 -9 17 -6 36 16 21 24 27 26 45 15 11
-7 20 -16 20 -20 0 -5 5 -8 10 -8 18 0 10 17 -12 28 -21 9 -21 11 -4 11 11 1
28 -6 38 -16 15 -13 23 -14 44 -4 14 6 30 9 35 5 5 -3 12 8 15 25 5 21 12 31
25 31 26 0 24 16 -3 24 -21 6 -22 7 -5 17 9 6 15 14 12 19 -6 10 13 32 48 59
15 12 17 11 17 -3 0 -10 -4 -15 -9 -11 -6 3 -15 -3 -21 -14 -10 -19 -8 -19 21
-9 17 6 36 19 42 29 7 11 18 19 25 19 7 0 25 14 39 30 13 17 29 28 34 24 5 -3
2 -12 -6 -20 -20 -20 -19 -27 1 -16 9 5 27 7 40 4 19 -3 22 -7 13 -18 -9 -11
-5 -11 20 -4 17 5 29 5 26 0 -3 -4 7 -11 20 -14 14 -4 23 -11 20 -16 -3 -6 6
-15 20 -20 19 -7 25 -15 21 -26 -4 -10 1 -18 13 -21 25 -6 35 -31 13 -29 -14
1 -17 -8 -15 -54 2 -35 8 -59 18 -66 8 -6 15 -18 15 -27 0 -9 5 -19 10 -22 6
-3 10 -11 10 -16 0 -6 -4 -7 -10 -4 -5 3 -10 -1 -10 -9 0 -8 5 -18 11 -22 6
-3 8 -17 4 -31 -5 -21 -3 -24 13 -19 11 4 24 1 29 -6 16 -21 24 -66 12 -70 -7
-2 -7 -12 1 -32 7 -21 7 -32 -1 -42 -6 -7 -8 -18 -4 -24 3 -5 -1 -10 -9 -10
-9 0 -16 -4 -16 -8 0 -4 -8 -8 -19 -9 -17 -1 -18 5 -13 69 3 47 1 69 -5 65
-12 -8 -23 38 -23 98 0 45 -30 127 -57 158 -9 10 -30 17 -50 17 -31 0 -33 -2
-33 -33 0 -37 -8 -49 -66 -101 -33 -28 -53 -38 -90 -41 -30 -3 -54 -12 -62
-22 -12 -16 -14 -16 -41 0 -33 19 -45 22 -36 7 4 -6 9 -22 11 -37 7 -38 12
-43 36 -34 40 15 121 -52 96 -77 -16 -16 -28 -15 -28 3 0 17 -16 20 -25 5 -4
-6 -11 -8 -16 -5 -5 4 -9 1 -9 -5 0 -25 -78 -80 -113 -80 -27 0 -57 -23 -57
-43 0 -8 -4 -7 -9 2 -12 18 -41 7 -48 -19 -3 -11 -10 -20 -17 -20 -6 0 -5 -4
3 -9 8 -5 20 -7 28 -4 7 3 13 0 13 -6 0 -6 -6 -12 -12 -12 -7 -1 -19 -2 -27
-3 -8 0 -16 -7 -18 -14 -3 -8 2 -10 14 -6 15 5 16 4 3 -5 -13 -10 -13 -12 0
-22 13 -9 13 -10 -2 -6 -9 3 -21 0 -27 -6 -12 -15 2 -42 18 -33 6 4 11 3 11
-2 0 -6 -7 -13 -16 -16 -13 -5 -14 -9 -4 -21 6 -8 9 -18 6 -23 -8 -14 34 -23
55 -11 23 12 29 11 29 -1 0 -6 -12 -15 -27 -21 -22 -8 -24 -12 -13 -19 8 -6
12 -10 8 -11 -5 -1 -12 -3 -18 -4 -5 -1 -12 -3 -15 -4 -13 -3 -20 0 -20 8 0 5
-3 12 -7 16 -4 4 -4 13 -1 20 2 8 -4 19 -15 26 -16 10 -19 20 -15 46 4 23 2
33 -7 33 -9 0 -9 4 -2 13 9 10 7 85 -2 94 -6 6 -61 -18 -68 -30 -8 -13 -68
-17 -68 -5 0 4 -9 8 -19 8 -11 0 -21 6 -24 13 -3 8 -13 6 -35 -10 -17 -13 -39
-23 -49 -23 -19 0 -96 -50 -88 -58 2 -3 10 0 17 6 12 9 77 26 103 27 6 0 16 6
24 13 21 20 24 7 6 -28 -9 -18 -18 -44 -19 -59 -3 -21 -10 -27 -37 -32 -44 -7
-81 -27 -74 -40 4 -5 10 -7 15 -4 5 3 3 -9 -3 -26 -11 -28 -10 -33 17 -55 27
-24 28 -26 10 -39 -17 -12 -14 -28 4 -31 4 0 24 -8 45 -18 37 -16 81 -14 93 6
4 6 0 14 -7 19 -9 5 3 7 30 5 l44 -4 -24 18 c-18 15 -27 16 -38 7 -12 -10 -13
-4 -7 38 11 83 17 105 28 105 6 0 8 -10 4 -25 -8 -30 41 -142 65 -150 18 -6
79 -90 79 -109 0 -15 27 -29 34 -18 2 4 4 29 4 55 0 45 -2 48 -35 62 -33 14
-34 15 -19 37 9 12 16 32 16 43 1 19 1 19 19 -2 10 -12 21 -19 25 -16 3 4 -1
14 -9 23 -14 16 -14 18 2 24 10 4 19 3 21 -2 1 -5 9 -17 16 -28 13 -16 15 -17
30 -2 9 9 16 23 16 30 0 10 2 10 9 -1 7 -11 9 -11 14 0 2 8 5 -1 4 -19 0 -22
-3 -29 -9 -20 -7 10 -12 9 -23 -6 -17 -23 -19 -36 -5 -36 6 0 10 5 10 10 0 6
7 10 15 10 8 0 15 -7 15 -16 0 -9 -5 -12 -12 -8 -7 4 -4 -2 7 -13 11 -11 28
-30 38 -42 13 -17 21 -19 36 -12 10 6 27 7 39 4 15 -4 22 -1 22 10 0 8 -9 17
-21 20 -12 3 -18 10 -14 17 4 6 2 17 -5 25 -6 7 -10 31 -8 52 2 28 9 41 28 50
14 7 19 13 13 13 -16 0 -17 24 -1 49 10 16 13 17 26 5 9 -9 22 -12 36 -8 l21
7 -20 -24 c-11 -13 -26 -29 -33 -36 -16 -14 -7 -34 12 -27 7 3 19 -2 26 -11 7
-8 18 -15 25 -15 7 0 16 -8 20 -17 6 -17 7 -17 21 1 12 17 14 18 14 3 0 -9 6
-17 13 -17 8 0 7 -3 -3 -9 -8 -6 -18 -7 -22 -5 -11 7 -10 -2 1 -24 5 -9 14
-43 21 -74 6 -32 16 -60 22 -64 14 -9 30 10 31 40 2 26 17 38 17 14 0 -7 14
-28 30 -45 31 -33 69 -49 93 -40 21 8 9 -41 -14 -56 -17 -12 -17 -14 7 -31 13
-11 24 -23 24 -27 0 -12 -37 -11 -45 1 -10 15 -35 12 -35 -5 0 -8 7 -15 15
-15 9 0 15 -6 14 -12 -1 -7 1 -25 5 -40 9 -31 36 -38 36 -10 0 9 7 25 14 34
12 16 14 16 34 -5 23 -24 30 -43 12 -32 -5 3 -10 -1 -10 -11 0 -14 2 -15 17
-3 13 11 17 11 20 2 3 -7 12 -13 20 -13 10 0 13 -6 9 -16 -3 -9 -6 -29 -6 -46
0 -25 -3 -28 -14 -19 -8 7 -17 23 -20 37 -7 27 -58 54 -64 35 -2 -6 -10 -11
-18 -11 -9 0 -12 -5 -9 -10 4 -7 13 -6 26 1 27 14 32 8 19 -25 -8 -22 -6 -30
10 -46 26 -26 27 -70 1 -70 -10 0 -21 -7 -25 -15 -3 -9 0 -15 8 -15 8 0 17 -6
19 -12 3 -7 6 -3 6 10 1 30 31 29 31 -1 0 -26 25 -83 41 -92 13 -8 1 -25 -17
-25 -8 0 -14 7 -14 15 0 8 -5 15 -11 15 -5 0 -7 5 -3 12 5 8 2 9 -10 5 -12 -5
-16 -2 -14 10 2 9 -3 18 -11 21 -8 3 -11 0 -7 -7 14 -22 -5 -33 -30 -17 -27
18 -38 20 -29 6 3 -5 1 -10 -6 -10 -6 0 -9 8 -6 20 3 12 0 20 -7 20 -18 0 -76
60 -76 79 0 14 -2 14 -10 1 -11 -17 -13 -10 -4 14 3 8 11 14 17 12 7 -1 9 -1
5 1 -12 7 -10 33 2 33 19 0 10 21 -14 30 -15 5 -27 20 -31 39 -4 17 -12 31
-18 31 -8 0 -9 3 -2 8 6 4 12 18 13 32 1 30 22 70 35 70 5 0 7 -9 4 -20 -3
-11 -1 -18 4 -14 5 3 9 0 9 -5 0 -6 4 -11 10 -11 11 0 2 24 -20 58 -16 24 -32
30 -24 9 3 -8 -2 -20 -11 -27 -8 -7 -15 -23 -15 -36 0 -13 -4 -24 -8 -24 -15
0 -52 41 -46 51 7 13 -15 41 -27 33 -5 -3 -9 -10 -9 -15 0 -6 5 -7 10 -4 6 3
10 1 10 -4 0 -18 -19 -12 -32 9 -15 23 -48 27 -48 6 0 -8 -10 -23 -22 -33 -32
-25 -33 -53 -4 -95 16 -24 21 -39 14 -46 -6 -6 1 -16 21 -28 17 -10 31 -21 31
-25 0 -3 12 -18 26 -33 15 -14 23 -26 18 -26 -5 0 -1 -5 9 -11 9 -5 17 -15 17
-21 0 -6 -10 -2 -22 9 -13 11 -31 23 -41 26 -9 4 -20 15 -24 24 -4 10 -17 26
-30 36 -13 10 -23 29 -23 42 0 12 -7 29 -16 36 -13 11 -17 10 -26 -4 -6 -12
-16 -16 -29 -12 -27 9 -25 -25 5 -69 16 -24 26 -32 34 -24 6 6 16 7 22 3 9 -6
8 -10 -4 -17 -23 -13 -20 -45 5 -59 14 -7 19 -17 16 -30 -3 -10 -1 -17 4 -13
15 9 10 -6 -12 -37 -17 -24 -18 -29 -5 -29 9 0 16 -6 16 -12 0 -10 3 -9 9 1 7
10 10 10 16 1 8 -13 -11 -30 -34 -30 -11 0 -11 -3 -1 -15 14 -16 10 -18 -14
-9 -10 4 -16 18 -16 35 0 27 -1 28 -27 16 -16 -6 -31 -17 -35 -23 -4 -6 -20
-9 -34 -6 -24 4 -26 2 -21 -18 9 -36 -1 -50 -29 -40 -21 8 -24 7 -24 -15 0
-26 -14 -33 -26 -14 -3 6 0 15 7 20 8 5 9 9 3 9 -5 0 -19 -7 -30 -15 -14 -11
-16 -15 -4 -15 12 0 11 -3 -3 -11 -21 -12 -47 4 -47 30 0 13 2 13 9 2 5 -7 14
-10 20 -7 6 4 9 11 6 16 -5 8 24 25 38 21 4 0 10 6 13 14 4 8 15 15 25 15 10
0 19 4 19 9 0 5 8 12 18 14 12 3 7 7 -15 12 -19 4 -33 15 -36 27 -6 20 -6 20
-35 -1 -30 -21 -50 -18 -31 6 10 11 5 12 -24 9 -20 -3 -39 -1 -42 5 -4 5 -10
7 -14 5 -4 -3 -13 -1 -21 5 -11 6 -4 9 22 9 52 0 55 15 9 36 -22 9 -42 25 -44
36 -6 22 -40 24 -62 2 -11 -12 -13 -20 -6 -27 16 -16 13 -27 -4 -21 -8 4 -15
1 -15 -5 0 -6 5 -11 10 -11 6 0 10 -6 10 -14 0 -8 6 -16 13 -19 6 -2 9 -8 5
-12 -4 -4 -14 -2 -23 5 -12 10 -15 10 -15 -2 0 -8 10 -20 23 -26 l22 -11 -22
0 c-36 -1 -65 34 -58 72 12 73 13 123 5 137 -8 12 -12 12 -18 2 -11 -16 -28 1
-33 33 -2 10 -15 22 -29 26 -14 4 -21 7 -16 8 11 1 -14 31 -26 31 -6 0 -5 -6
2 -15 6 -8 9 -19 6 -24 -4 -5 -1 -13 5 -17 8 -4 7 -9 -2 -16 -11 -7 -11 -11
-1 -15 6 -2 12 -12 12 -21 0 -12 -4 -11 -21 7 -26 28 -42 80 -29 96 10 12 4
25 -12 25 -5 0 -6 -5 -2 -12 5 -7 2 -9 -7 -6 -8 3 -25 1 -39 -4 -22 -8 -23
-10 -8 -19 10 -5 15 -16 11 -25 -4 -11 -9 -12 -19 -3 -19 15 -37 7 -41 -19 -5
-38 -34 -74 -52 -66 -24 11 -50 8 -111 -11 -30 -9 -61 -17 -67 -17 -18 -2 -16
-8 4 -23 14 -10 15 -16 5 -27 -19 -24 -65 -10 -88 25 -20 31 -20 33 -4 60 10
15 15 39 12 52 -3 20 -1 24 12 19 12 -5 15 -2 10 11 -6 15 -4 16 15 5 13 -6
25 -10 27 -7 12 12 -10 54 -37 69 -16 10 -32 25 -36 35 -4 10 -15 25 -25 35
-11 9 -20 26 -21 37 -1 12 -9 24 -19 27 -10 3 -18 9 -18 14 0 5 -11 21 -26 37
-22 24 -28 26 -45 14 -19 -11 -20 -10 -15 7 5 15 2 20 -11 18 -25 -2 -33 -16
-26 -46 l6 -25 -25 25 c-20 21 -22 27 -11 37 8 6 11 13 6 16 -4 3 -8 25 -7 50
0 36 -2 43 -16 40 -20 -5 -52 28 -32 34 20 7 13 23 -9 20 -12 -1 -24 4 -27 12
-3 9 0 11 8 6 12 -8 12 6 -4 65 -3 8 -5 17 -5 19 -1 2 -8 -2 -16 -9 -12 -10
-15 -10 -15 4 0 9 3 16 8 17 4 0 15 2 25 4 16 3 18 -1 21 -45 1 -8 4 -13 7
-10 3 3 17 -7 31 -22 25 -27 46 -38 33 -18 -7 11 28 14 38 3 4 -3 -1 -12 -11
-20 -9 -8 -12 -12 -5 -9 6 4 13 1 15 -6 3 -7 12 -9 22 -5 16 6 16 10 5 25 -13
15 -12 16 4 3 9 -7 17 -21 17 -29 0 -13 4 -12 21 5 l22 21 -21 34 c-17 25 -22
29 -22 14 0 -20 0 -20 -15 0 -14 18 -14 18 -15 -6 -1 -21 -2 -22 -10 -9 -7 12
-5 26 5 45 13 26 12 62 -3 89 -13 22 -12 73 3 85 8 7 15 23 15 36 0 15 6 24
15 24 8 0 15 7 15 16 0 8 4 13 9 10 16 -10 35 49 42 129 10 124 19 144 62 145
11 0 17 8 17 25 l0 25 22 -22 c20 -20 44 -113 26 -102 -13 8 -10 -3 10 -36 13
-21 22 -26 29 -19 8 8 15 1 27 -22 9 -18 16 -37 16 -44 0 -16 30 -42 74 -63
l37 -18 -22 -20 c-12 -10 -19 -13 -15 -7 5 9 2 11 -8 7 -9 -3 -16 -10 -16 -14
0 -5 -8 -11 -18 -14 -24 -8 -26 -42 -2 -42 10 0 16 5 13 10 -4 5 1 7 10 3 10
-3 17 -3 17 2 0 13 43 22 51 10 3 -6 9 1 13 16 5 18 12 25 22 21 9 -3 12 -2 9
5 -4 6 3 7 22 3 37 -9 37 -9 5 -25 -32 -17 -46 -30 -50 -47 -2 -12 22 -10 67
4 8 3 18 -1 22 -8 7 -10 11 -10 21 1 10 10 10 12 1 7 -7 -4 -13 -2 -13 3 0 6
8 11 17 11 15 0 14 2 -3 16 -12 10 -14 14 -4 11 8 -2 21 2 28 9 12 13 8 18
-10 15 -5 0 -8 4 -8 9 0 6 -5 10 -11 10 -5 0 -8 -4 -5 -8 2 -4 -11 -6 -30 -4
-32 4 -60 22 -33 22 7 0 -7 14 -29 30 -23 17 -45 30 -49 30 -5 0 -21 24 -37
53 -16 28 -35 56 -43 60 -15 9 -18 37 -3 37 16 0 11 27 -6 34 -12 5 -15 14 -9
39 14 66 13 106 -1 111 -10 4 -14 -3 -14 -25 0 -18 -4 -28 -10 -24 -14 8 -2
117 13 127 7 5 1 8 -14 8 -28 0 -79 34 -67 45 3 3 14 2 25 -4 10 -5 29 -12 43
-15 17 -4 32 -18 43 -42 15 -31 20 -34 33 -23 10 8 8 0 -6 -24 -15 -25 -19
-41 -12 -52 7 -13 10 -14 18 -3 25 33 48 133 36 153 -4 6 -7 16 -8 23 -3 18
-14 29 -14 14 0 -7 -5 -12 -11 -12 -5 0 -8 4 -4 9 3 5 0 13 -6 17 -8 5 -8 9 1
14 9 5 9 13 1 27 -10 20 -6 33 11 33 4 0 8 -7 8 -15 0 -8 5 -15 10 -15 6 0 10
4 10 10 0 5 15 25 33 43 31 33 32 35 12 43 -14 6 -20 18 -20 39 0 17 -4 33
-10 37 -5 4 0 8 11 8 12 0 27 -7 34 -15 7 -8 17 -12 24 -8 7 4 6 1 -1 -9 -7
-8 -10 -18 -6 -21 14 -15 32 -5 42 23 5 17 13 30 16 30 3 0 3 -4 0 -10 -3 -5
-1 -10 6 -10 10 0 10 -3 1 -12 -16 -16 -15 -31 1 -21 6 4 17 8 22 8 6 0 12 11
13 24 3 19 6 21 13 10 7 -11 9 -11 9 4 0 9 5 17 10 17 10 0 14 -14 11 -37 -3
-18 24 -16 43 3 9 8 24 13 34 10 12 -4 26 1 37 14 18 20 17 20 -13 31 -18 6
-29 15 -26 20 3 6 -6 7 -22 3 -16 -4 -34 -7 -41 -7 -7 0 -13 -6 -13 -14 0 -8
-12 -13 -29 -13 -27 0 -28 1 -18 25 10 21 47 47 69 49 4 1 13 7 20 14 19 19
-16 16 -55 -5 -18 -9 -40 -16 -49 -14 -12 1 -18 -4 -18 -17 0 -28 -41 -37 -61
-13 -15 18 -16 17 -28 -10 -7 -16 -19 -29 -27 -29 -8 0 -15 -4 -15 -10 -2 -15
-5 -23 -19 -55 -7 -16 -12 -38 -11 -48 4 -28 -16 -44 -50 -42 -17 1 -48 -4
-68 -12 -20 -8 -44 -16 -53 -20 -10 -3 -18 -9 -18 -14 0 -12 7 -11 31 1 26 14
25 -4 -1 -30 -22 -22 -77 -29 -63 -7 9 15 13 37 6 37 -3 0 -19 -10 -36 -22
-18 -13 -35 -23 -39 -23 -3 0 -23 -17 -43 -38 -20 -20 -60 -49 -88 -63 -49
-26 -79 -49 -135 -104 -14 -14 -22 -18 -17 -10 4 8 -8 -3 -28 -25 -20 -22 -36
-45 -37 -52 0 -7 -9 -17 -19 -23 -26 -13 -31 -13 -31 4 0 8 -5 16 -12 18 -7 3
2 13 20 23 18 11 32 26 32 35 0 20 74 100 93 100 31 0 82 55 103 113 3 9 12
17 19 17 7 0 15 10 18 23 4 12 37 45 79 75 92 66 131 101 153 140 15 26 51 52
71 52 3 0 -4 -16 -17 -36 l-22 -36 21 7 c14 4 22 2 22 -5 0 -6 6 -10 13 -7 6
2 11 11 9 19 -2 11 10 17 39 22 37 6 108 46 81 46 -6 0 -18 3 -27 6 -9 4 -15
3 -13 -2 2 -5 -1 -9 -7 -9 -5 0 -9 6 -8 14 0 7 -8 29 -18 49 l-20 34 24 -6
c21 -5 26 -2 29 19 3 14 1 25 -4 25 -11 0 30 54 76 101 30 31 62 40 53 14 -3
-7 2 -24 12 -36 14 -17 23 -20 49 -14 37 8 43 25 10 25 -13 0 -29 4 -36 9 -18
11 36 22 67 14 27 -7 53 14 46 38 -4 11 -2 19 4 19 6 0 11 -7 11 -15 0 -16 16
-20 65 -16 37 3 44 9 25 21 -28 17 -3 20 46 5 31 -9 52 -11 58 -5 7 7 6 10 -2
10 -25 0 -11 20 21 28 25 7 31 14 30 31 -4 29 33 43 115 46 35 1 68 7 74 13 7
7 21 9 33 5 11 -4 52 -6 90 -6z m-575 -97 c-12 -11 -31 -22 -41 -25 -11 -4
-19 -11 -19 -16 0 -5 -4 -9 -9 -9 -5 0 -8 8 -7 18 0 10 18 24 41 34 53 22 63
22 35 -2z m1137 4 c-3 -3 -12 -4 -19 -1 -8 3 -5 6 6 6 11 1 17 -2 13 -5z
m-403 -53 c3 -5 -4 -11 -16 -14 -25 -7 -33 -3 -23 12 8 13 32 14 39 2z m589
-63 c-2 -4 -10 -5 -18 -2 -11 5 -12 10 -2 25 11 18 12 18 18 1 4 -9 5 -20 2
-24z m-1555 5 c-2 -10 -14 -19 -26 -21 -21 -3 -22 -2 -10 17 16 25 41 28 36 4z
m1592 7 c0 -5 -5 -10 -11 -10 -5 0 -7 5 -4 10 3 6 8 10 11 10 2 0 4 -4 4 -10z
m40 -10 c0 -5 -4 -10 -9 -10 -6 0 -13 5 -16 10 -3 6 1 10 9 10 9 0 16 -4 16
-10z m-1740 -30 c0 -5 -4 -10 -10 -10 -5 0 -10 5 -10 10 0 6 5 10 10 10 6 0
10 -4 10 -10z m922 -30 c-4 -3 -7 -11 -8 -17 -2 -29 -5 -33 -21 -33 -14 0 -15
2 -4 9 7 5 13 25 13 45 0 33 1 35 13 19 7 -10 10 -20 7 -23z m-897 -10 c-3 -5
-12 -10 -18 -10 -7 0 -6 4 3 10 19 12 23 12 15 0z m-65 -40 c-8 -5 -17 -7 -19
-4 -3 3 1 9 9 14 8 5 17 7 19 4 3 -3 -1 -9 -9 -14z m1640 -6 c0 -2 -7 -4 -15
-4 -8 0 -15 4 -15 10 0 5 7 7 15 4 8 -4 15 -8 15 -10z m-1705 -41 c8 -22 6
-29 -6 -25 -5 1 -9 -5 -9 -13 0 -9 -7 -18 -15 -21 -8 -4 -15 -11 -15 -18 0 -6
-21 -32 -47 -57 -52 -49 -111 -90 -97 -68 6 11 5 12 -7 2 -8 -7 -27 -10 -42
-8 -22 5 -28 1 -33 -22 -9 -36 -22 -53 -38 -47 -7 3 -17 -6 -24 -20 -8 -18
-16 -23 -31 -19 l-21 5 20 28 c11 16 20 35 20 43 0 9 6 17 13 20 6 2 9 8 4 13
-4 4 -21 -8 -37 -27 -23 -26 -29 -30 -30 -16 0 23 56 81 70 72 5 -3 10 3 10
14 0 22 33 62 68 80 22 11 22 11 20 -34 0 -25 4 -51 10 -57 9 -9 12 -5 12 18
1 24 2 26 11 12 11 -19 49 -25 49 -8 0 5 -7 7 -15 4 -9 -4 -15 0 -15 10 0 10
8 16 21 16 18 0 19 3 9 15 -10 11 -9 18 3 30 9 8 19 15 24 15 5 0 16 9 26 20
9 11 24 20 32 20 8 0 20 9 27 20 16 25 24 25 33 3z m1716 -1 c8 -9 28 -27 44
-39 17 -12 24 -23 17 -23 -7 0 -20 7 -28 15 -8 8 -22 11 -31 8 -14 -6 -14 -7
2 -19 9 -7 14 -17 11 -23 -4 -6 -16 -2 -31 11 -17 15 -21 24 -14 29 7 4 9 17
5 33 -7 30 3 34 25 8z m-347 -7 c-7 -16 -24 -21 -24 -6 0 8 7 13 27 20 1 1 0
-6 -3 -14z m311 -5 c3 -5 1 -10 -4 -10 -6 0 -11 5 -11 10 0 6 2 10 4 10 3 0 8
-4 11 -10z m-702 -17 c-7 -2 -19 -2 -25 0 -7 3 -2 5 12 5 14 0 19 -2 13 -5z
m-908 -13 c-3 -5 -12 -10 -18 -10 -7 0 -6 4 3 10 19 12 23 12 15 0z m1235 0
c0 -5 -7 -10 -15 -10 -8 0 -15 5 -15 10 0 6 7 10 15 10 8 0 15 -4 15 -10z
m-1183 -32 c-3 -8 -6 -5 -6 6 -1 11 2 17 5 13 3 -3 4 -12 1 -19z m1263 6 c0
-3 -7 -12 -15 -20 -8 -9 -15 -13 -15 -11 0 3 -3 12 -6 21 -4 12 0 16 15 16 12
0 21 -3 21 -6z m-135 -14 c4 -6 -8 -10 -30 -10 -22 0 -34 4 -30 10 3 6 17 10
30 10 13 0 27 -4 30 -10z m40 0 c3 -5 -1 -10 -9 -10 -9 0 -16 5 -16 10 0 6 4
10 9 10 6 0 13 -4 16 -10z m-1331 -57 l-26 -28 23 44 c15 27 25 38 27 28 2 -9
-9 -29 -24 -44z m1806 53 c0 -3 -4 -8 -10 -11 -5 -3 -10 -1 -10 4 0 6 5 11 10
11 6 0 10 -2 10 -4z m-1270 -16 c0 -5 -2 -10 -4 -10 -3 0 -8 5 -11 10 -3 6 -1
10 4 10 6 0 11 -4 11 -10z m1050 -30 c0 -5 -2 -10 -4 -10 -3 0 -8 5 -11 10 -3
6 -1 10 4 10 6 0 11 -4 11 -10z m295 -47 c4 -14 2 -23 -4 -23 -6 0 -11 3 -11
8 0 4 -3 18 -6 32 -8 31 11 16 21 -17z m-1955 -28 c0 -2 -10 -10 -22 -16 -21
-11 -22 -11 -9 4 13 16 31 23 31 12z m965 -24 c3 -5 1 -12 -5 -16 -6 -4 -8
-11 -5 -16 4 -5 1 -9 -4 -9 -6 0 -11 11 -11 25 0 25 14 34 25 16z m-1025 -16
c-7 -8 -17 -12 -22 -9 -6 4 -5 10 3 15 22 14 33 10 19 -6z m947 -7 c-3 -8 -6
-5 -6 6 -1 11 2 17 5 13 3 -3 4 -12 1 -19z m-557 3 c0 -6 -4 -13 -10 -16 -5
-3 -10 1 -10 9 0 9 5 16 10 16 6 0 10 -4 10 -9z m660 -11 c0 -5 -5 -10 -11
-10 -5 0 -7 5 -4 10 3 6 8 10 11 10 2 0 4 -4 4 -10z m690 -10 c0 -11 -7 -20
-15 -20 -18 0 -19 12 -3 28 16 16 18 15 18 -8z m306 -27 c-10 -10 -19 5 -10
18 6 11 8 11 12 0 2 -7 1 -15 -2 -18z m-1756 7 c-8 -5 -22 -10 -30 -10 -13 0
-13 1 0 10 8 5 22 10 30 10 13 0 13 -1 0 -10z m1560 -11 c7 -11 10 -22 8 -24
-8 -8 -58 9 -58 19 0 32 35 35 50 5z m-690 -19 c0 8 2 11 5 8 3 -3 -1 -17 -8
-32 -12 -23 -16 -24 -27 -11 -10 12 -10 15 0 15 7 0 10 7 6 16 -5 14 -4 15 9
4 12 -10 15 -10 15 0z m-50 -31 c0 -6 -4 -7 -10 -4 -5 3 -10 11 -10 16 0 6 5
7 10 4 6 -3 10 -11 10 -16z m530 1 c0 -5 -2 -10 -4 -10 -3 0 -8 5 -11 10 -3 6
-1 10 4 10 6 0 11 -4 11 -10z m230 -42 c0 -4 -7 -8 -15 -8 -8 0 -15 4 -15 8 0
5 7 9 15 9 8 0 15 -4 15 -9z m181 -55 c24 -61 27 -80 13 -80 -16 0 -26 21 -31
70 -5 44 3 48 18 10z m68 2 c5 2 6 -6 4 -19 -3 -16 2 -31 16 -45 12 -12 21
-27 21 -34 0 -8 12 -20 28 -27 41 -21 49 -23 30 -7 -26 21 -22 28 10 21 36 -9
67 -38 69 -65 2 -21 1 -21 -12 -3 -10 13 -17 15 -22 8 -5 -6 -21 -14 -38 -18
-29 -7 -29 -8 -11 -22 11 -8 29 -14 40 -14 26 0 41 -10 49 -32 4 -12 -2 -18
-29 -23 -28 -5 -33 -9 -25 -19 16 -19 3 -50 -14 -36 -7 6 -19 8 -28 4 -8 -3
-18 0 -23 7 -5 9 -2 10 9 6 20 -8 29 5 21 28 -7 16 -8 16 -16 0 -7 -12 -17
-15 -35 -10 -22 5 -25 3 -20 -15 3 -13 -1 -24 -13 -30 -26 -14 -25 -14 -26 26
0 21 2 30 7 22 7 -10 12 -10 25 3 20 21 6 30 -26 16 -24 -10 -33 -12 -72 -16
-14 -1 -16 -5 -8 -26 5 -14 9 -29 8 -33 -2 -9 9 -38 30 -79 9 -18 13 -35 10
-39 -11 -11 -25 4 -31 33 -4 21 -16 32 -46 45 -23 9 -41 12 -41 7 0 -5 -5 -9
-11 -9 -6 0 -9 6 -6 14 8 19 -3 28 -19 15 -9 -7 -14 -4 -19 12 -8 24 -64 78
-82 79 -7 0 -13 5 -13 11 0 5 5 7 11 3 17 -10 0 38 -23 62 -19 21 -19 21 1 27
10 2 23 1 28 -4 4 -4 20 -10 35 -13 15 -2 32 -8 38 -11 6 -4 17 -1 25 5 16 14
18 10 9 -14 -3 -9 -12 -16 -20 -16 -8 0 -14 -9 -14 -20 0 -15 7 -20 25 -20 14
0 24 3 24 8 -3 18 3 46 8 35 2 -7 11 -13 18 -13 7 0 20 -11 29 -25 14 -21 46
-35 46 -21 0 2 3 11 6 20 5 12 -1 16 -22 16 -26 1 -27 2 -11 14 9 7 17 23 17
35 0 11 4 21 10 21 5 0 20 11 34 25 14 14 33 25 42 25 15 0 15 3 -5 21 -17 16
-21 27 -16 51 5 20 3 33 -5 38 -7 5 -9 13 -4 21 6 10 9 10 12 1 2 -7 7 -10 11
-7z m127 -19 c1 -9 -4 -16 -12 -16 -10 0 -12 -5 -8 -12 5 -9 3 -9 -9 1 -9 7
-14 18 -11 23 4 6 0 14 -7 19 -9 5 -4 7 15 5 18 -2 30 -9 32 -20z m-2181 -116
c3 -5 1 -10 -4 -10 -6 0 -11 5 -11 10 0 6 2 10 4 10 3 0 8 -4 11 -10z m1725
-11 c0 -6 -4 -7 -10 -4 -5 3 -10 11 -10 16 0 6 5 7 10 4 6 -3 10 -11 10 -16z
m550 1 c0 -5 -2 -10 -4 -10 -3 0 -8 5 -11 10 -3 6 -1 10 4 10 6 0 11 -4 11
-10z m-2300 -125 c-7 -9 -15 -13 -17 -11 -7 7 7 26 19 26 6 0 6 -6 -2 -15z
m250 5 c0 -5 -4 -10 -10 -10 -5 0 -10 5 -10 10 0 6 5 10 10 10 6 0 10 -4 10
-10z m1140 -18 c0 -14 -39 -32 -46 -21 -4 6 0 15 7 20 17 11 39 12 39 1z m-90
-16 c0 -3 -4 -8 -10 -11 -5 -3 -10 -1 -10 4 0 6 5 11 10 11 6 0 10 -2 10 -4z
m-1353 -28 c-3 -8 -6 -5 -6 6 -1 11 2 17 5 13 3 -3 4 -12 1 -19z m1223 -28 c0
-5 -5 -10 -11 -10 -5 0 -7 5 -4 10 3 6 8 10 11 10 2 0 4 -4 4 -10z m964 -6
c20 -8 21 -44 1 -44 -8 0 -15 -7 -15 -15 0 -8 6 -15 13 -15 6 0 12 -11 12 -25
0 -14 -4 -25 -9 -25 -4 0 -6 -6 -3 -14 4 -9 -3 -13 -24 -12 -26 1 -44 16 -18
16 6 0 8 8 4 19 -3 11 1 35 9 55 10 24 11 36 3 39 -6 2 -7 9 -3 15 8 14 9 14
30 6z m-815 -28 c12 -15 12 -19 0 -27 -16 -10 -24 -3 -34 29 -8 27 13 27 34
-2z m738 -23 c-3 -3 -11 -2 -17 2 -8 5 -7 11 2 22 12 15 13 14 16 -1 2 -10 1
-20 -1 -23z m246 21 c-3 -9 1 -14 12 -14 9 0 14 4 10 9 -3 5 -1 12 4 16 6 3
15 -4 21 -15 6 -12 21 -20 35 -20 14 0 25 -5 25 -11 0 -5 6 -7 13 -3 6 4 3 -2
-7 -14 -12 -14 -14 -22 -7 -22 7 0 10 -4 7 -9 -8 -13 42 -20 95 -14 34 4 49 1
62 -11 9 -9 29 -19 46 -22 40 -8 63 -58 35 -78 -8 -6 -17 -35 -21 -64 -4 -37
-9 -50 -16 -43 -15 15 -23 14 -42 -6 -14 -13 -21 -14 -36 -5 -26 16 -40 15
-33 -3 8 -19 0 -19 -20 1 -15 14 -16 14 -16 0 0 -9 -4 -16 -9 -16 -5 0 -23
-11 -39 -25 -27 -23 -72 -31 -72 -12 0 5 -7 1 -16 -7 -18 -19 -34 -21 -34 -5
0 7 -10 9 -27 5 -16 -4 -39 -7 -52 -7 -17 1 -22 -3 -17 -15 7 -17 -19 -43 -43
-44 -9 0 -12 8 -9 25 3 14 2 25 -2 25 -12 0 -19 -26 -13 -49 4 -16 2 -20 -9
-16 -21 8 -77 -51 -71 -75 5 -17 1 -20 -23 -18 -36 2 -74 -17 -74 -38 0 -8 5
-24 11 -36 14 -27 2 -36 -16 -12 -15 19 -15 19 -8 0 5 -15 3 -17 -8 -11 -8 5
-5 -1 5 -13 19 -22 19 -22 -7 -22 -16 0 -26 5 -25 13 3 14 -40 11 -59 -4 -7
-7 -14 -6 -18 1 -9 15 -25 12 -25 -5 0 -8 -5 -15 -11 -15 -5 0 -7 -6 -3 -12 6
-10 4 -10 -7 -2 -11 9 -19 7 -34 -8 -20 -19 -20 -19 0 -12 20 7 20 7 0 -9 -25
-19 -41 0 -19 24 7 8 14 20 14 25 0 5 9 17 20 27 11 9 20 12 20 7 0 -6 10 -2
22 10 12 11 32 20 44 20 12 0 32 9 45 20 26 21 22 25 -13 11 -20 -7 -24 -6
-24 9 0 10 4 16 8 14 4 -3 8 -1 8 4 0 5 10 12 23 16 18 5 20 8 7 16 -13 9 -11
14 11 33 14 13 23 29 21 36 -2 7 4 19 14 26 14 10 15 14 5 15 -8 0 -21 -6 -30
-14 -9 -8 -28 -26 -44 -40 -15 -14 -34 -23 -42 -20 -13 5 -13 10 0 35 9 16 28
42 44 58 16 16 26 33 23 36 -8 8 -12 65 -4 65 2 0 10 -7 17 -17 13 -18 35 -10
35 13 0 13 -11 18 -37 15 -6 -1 -14 3 -18 9 -10 15 51 12 67 -4 28 -27 52 -24
64 9 10 26 15 30 44 27 21 -2 30 0 25 7 -3 6 -13 11 -20 11 -9 0 -12 6 -9 15
4 8 2 15 -4 15 -15 0 -25 71 -13 83 8 8 11 5 11 -11 0 -13 7 -25 16 -29 10 -4
12 -8 5 -13 -7 -4 -1 -11 14 -18 25 -11 26 -11 20 9 -6 17 -4 21 8 16 10 -3
17 1 20 14 3 10 1 19 -4 19 -21 0 5 28 32 34 18 3 29 12 29 22 0 9 6 14 13 11
15 -6 42 47 34 67 -7 18 -4 21 26 22 18 1 24 -2 20 -12z m-2444 -48 c-11 -26
-23 -45 -26 -42 -10 10 34 101 45 92 1 -2 -7 -24 -19 -50z m2981 45 c0 -16
-23 -26 -28 -12 -3 9 -7 9 -18 0 -12 -10 -13 -9 -8 5 6 17 54 23 54 7z m-860
-40 c0 -6 -4 -13 -10 -16 -5 -3 -10 1 -10 9 0 9 5 16 10 16 6 0 10 -4 10 -9z
m-621 -47 c20 -19 41 -34 47 -34 18 0 23 -24 9 -43 -10 -14 -14 -15 -24 -3 -6
7 -8 21 -4 31 6 16 2 17 -28 11 -19 -3 -42 -16 -51 -29 -15 -18 -19 -20 -27
-7 -5 8 -7 18 -5 22 3 4 1 8 -5 8 -5 0 -13 -4 -16 -10 -4 -6 -12 -6 -24 2 -15
9 -16 15 -7 34 9 20 16 23 44 18 36 -7 44 9 15 33 -16 13 -15 14 11 8 16 -3
46 -22 65 -41z m-1748 -1 c-12 -20 -14 -14 -5 12 4 9 9 14 11 11 3 -2 0 -13
-6 -23z m71 -6 c-5 -7 -12 -25 -16 -40 -4 -16 -17 -50 -30 -76 -16 -34 -19
-48 -10 -48 7 0 11 3 9 6 -2 4 8 12 21 18 22 10 24 10 19 -8 -5 -14 -2 -19 10
-19 11 0 15 -5 12 -15 -4 -8 -2 -17 3 -20 6 -4 10 -11 10 -16 0 -6 -11 2 -24
16 -36 38 -66 22 -100 -54 -29 -65 -42 -78 -33 -34 5 29 -10 83 -24 83 -6 0
-5 9 1 20 6 12 10 29 8 39 -2 10 2 17 7 17 6 -1 10 -9 9 -18 -1 -21 1 -21 26
-8 10 5 21 22 25 37 8 36 47 113 56 113 3 0 10 10 14 23 4 14 8 17 12 9 3 -7
1 -18 -5 -25z m2103 23 c11 -17 -5 -32 -21 -19 -7 6 -11 15 -8 20 7 12 21 11
29 -1z m-95 -10 c0 -5 -2 -10 -4 -10 -3 0 -8 5 -11 10 -3 6 -1 10 4 10 6 0 11
-4 11 -10z m1285 -28 c-16 -4 -26 -37 -14 -49 4 -4 4 -15 -1 -23 -7 -10 -10
-11 -10 -2 0 6 -6 12 -14 12 -14 0 -26 21 -26 47 0 12 3 13 14 4 10 -9 16 -8
26 4 7 8 9 15 6 15 -4 0 -1 6 6 14 11 12 14 11 19 -3 4 -9 1 -17 -6 -19z
m-2575 18 c-19 -13 -30 -13 -30 0 0 6 10 10 23 10 18 0 19 -2 7 -10z m1270 -4
c0 -11 -19 -15 -25 -6 -3 5 1 10 9 10 9 0 16 -2 16 -4z m-2090 -15 c0 -5 -7
-14 -15 -21 -16 -14 -18 -10 -9 14 6 17 24 22 24 7z m236 -17 c-4 -9 -9 -15
-11 -12 -3 3 -3 13 1 22 4 9 9 15 11 12 3 -3 3 -13 -1 -22z m1316 -39 c-1 -19
3 -35 7 -35 5 0 4 -11 -2 -25 -8 -17 -18 -24 -30 -21 -9 2 -15 0 -11 -5 3 -5
0 -9 -5 -9 -15 0 -14 57 2 64 9 3 7 9 -6 19 -16 13 -16 16 4 41 26 34 43 22
41 -29z m338 26 c0 -5 -7 -14 -15 -21 -13 -10 -15 -9 -15 9 0 12 6 21 15 21 8
0 15 -4 15 -9z m1386 1 c6 -4 15 -17 19 -30 4 -13 9 -21 12 -18 4 3 12 1 20
-5 7 -6 13 -8 13 -3 0 11 20 -18 20 -28 0 -19 -28 -6 -34 15 -4 15 -8 18 -14
10 -6 -9 -12 -7 -22 7 -18 25 -33 26 -25 1 3 -11 1 -22 -5 -26 -5 -3 -15 -26
-21 -51 -11 -44 -29 -60 -29 -25 0 10 -8 29 -19 42 l-18 23 -13 -37 c-15 -41
-30 -40 -30 2 0 74 48 125 80 86 11 -14 15 -12 28 15 15 32 20 34 38 22z
m-2406 -6 c0 -3 -4 -8 -10 -11 -5 -3 -10 -1 -10 4 0 6 5 11 10 11 6 0 10 -2
10 -4z m-770 -26 c0 -5 -5 -10 -11 -10 -5 0 -7 5 -4 10 3 6 8 10 11 10 2 0 4
-4 4 -10z m1580 -34 c-5 -5 -16 -6 -26 -2 -16 6 -16 8 2 20 14 11 21 11 26 3
4 -7 3 -16 -2 -21z m770 -40 c0 -2 -7 -7 -16 -10 -8 -3 -12 -2 -9 4 6 10 25
14 25 6z m-2212 -37 c-19 -13 -28 -11 -28 5 0 9 7 12 21 9 16 -4 17 -8 7 -14z
m815 4 c-7 -2 -19 -2 -25 0 -7 3 -2 5 12 5 14 0 19 -2 13 -5z m477 -3 c0 -5
-5 -10 -11 -10 -5 0 -7 5 -4 10 3 6 8 10 11 10 2 0 4 -4 4 -10z m-490 -30 c12
-8 11 -10 -7 -10 -12 0 -25 5 -28 10 -8 13 15 13 35 0z m403 -10 c-6 -22 -18
-26 -28 -10 -8 13 3 30 20 30 8 0 11 -7 8 -20z m401 -17 c-19 -19 -25 -14 -17
15 4 18 8 20 19 11 11 -9 11 -14 -2 -26z m-304 -4 c0 -4 -7 -6 -15 -3 -8 4
-15 10 -15 15 0 4 7 6 15 3 8 -4 15 -10 15 -15z m256 -16 c-10 -10 -19 5 -10
18 6 11 8 11 12 0 2 -7 1 -15 -2 -18z m1427 -10 c4 -20 2 -33 -4 -33 -6 0 -17
-7 -26 -15 -25 -26 -27 -9 -4 41 12 25 23 45 25 43 2 -2 6 -19 9 -36z m-3003
-11 c0 -15 -2 -15 -10 -2 -13 20 -13 33 0 25 6 -3 10 -14 10 -23z m1978 6 c-1
-13 2 -51 5 -86 3 -34 2 -60 -3 -57 -5 3 -12 0 -17 -8 -8 -12 -56 -38 -82 -43
-7 -1 -25 2 -40 8 -14 6 -28 12 -31 13 -3 0 -16 5 -29 9 -16 6 -26 4 -32 -5
-5 -8 -9 -9 -9 -4 0 6 4 16 9 24 8 12 12 13 26 1 12 -10 19 -10 27 -2 9 9 8
12 -5 12 -12 0 -17 8 -16 28 1 16 3 20 6 10 5 -22 10 -22 29 -3 9 8 20 15 25
15 5 0 9 -7 9 -15 0 -8 -7 -15 -15 -15 -8 0 -15 -4 -15 -10 0 -5 7 -7 16 -3
13 5 15 1 10 -18 -7 -23 -7 -24 9 -4 10 13 12 21 5 23 -6 2 -2 11 10 19 19 13
24 13 31 2 6 -10 11 -6 20 19 6 17 14 32 19 32 4 0 5 11 2 25 -4 24 12 55 28
55 4 0 8 -10 8 -22z m747 12 c3 -5 1 -10 -4 -10 -14 0 -14 -27 -1 -33 6 -3 5
-4 -2 -3 -15 3 -24 56 -9 56 5 0 13 -4 16 -10z m-705 -30 c0 -5 -5 -10 -11
-10 -5 0 -7 5 -4 10 3 6 8 10 11 10 2 0 4 -4 4 -10z m862 -2 c21 3 29 1 24 -6
-4 -6 -13 -9 -22 -5 -9 3 -14 0 -12 -8 2 -7 -4 -14 -12 -16 -11 -3 -16 5 -17
24 -1 15 1 23 3 17 2 -6 19 -8 36 -6z m-1205 -24 c-9 -9 -28 6 -21 18 4 6 10
6 17 -1 6 -6 8 -13 4 -17z m-1472 6 c3 -6 -1 -7 -9 -4 -18 7 -21 14 -7 14 6 0
13 -4 16 -10z m2602 -37 c27 8 36 8 43 -2 10 -18 1 -48 -17 -55 -11 -5 -13 0
-8 17 l6 22 -20 -23 c-11 -13 -25 -21 -31 -17 -6 4 -18 1 -27 -7 -15 -11 -16
-10 -10 11 l6 23 -24 -22 c-12 -12 -24 -17 -26 -11 -3 7 -13 6 -31 -3 -24 -13
-26 -12 -31 10 -3 15 3 30 16 41 11 10 17 12 13 6 -10 -17 13 -17 55 1 19 8
38 11 42 6 5 -4 24 -3 44 3z m-3081 -39 c-3 -9 -6 -18 -6 -20 0 -3 -4 -3 -10
1 -11 7 -2 35 12 35 6 0 7 -7 4 -16z m281 10 c-3 -3 -12 -4 -19 -1 -8 3 -5 6
6 6 11 1 17 -2 13 -5z m2363 -11 c0 -5 -10 -19 -23 -33 -27 -32 -63 -36 -70
-9 -4 16 -1 20 16 17 12 -1 33 5 47 15 28 19 30 20 30 10z m-2315 -43 c0 -35
-2 -38 -12 -23 -7 9 -13 25 -13 34 0 10 6 20 13 22 6 3 12 6 12 6 0 1 0 -17 0
-39z m2360 -21 c-4 -5 -16 -9 -28 -9 -20 0 -20 0 -2 14 21 15 40 12 30 -5z
m-187 -38 c-7 -11 -16 -17 -22 -14 -5 3 -1 12 9 20 25 18 27 17 13 -6z m84 -3
c-2 -10 -12 -18 -22 -18 -13 0 -17 6 -13 19 3 11 13 19 23 18 11 -1 16 -7 12
-19z m38 2 c0 -5 -7 -10 -16 -10 -8 0 -12 5 -9 10 3 6 10 10 16 10 5 0 9 -4 9
-10z m30 0 c0 -5 -5 -10 -11 -10 -5 0 -7 5 -4 10 3 6 8 10 11 10 2 0 4 -4 4
-10z m-2390 -10 c0 -5 -4 -10 -10 -10 -5 0 -10 5 -10 10 0 6 5 10 10 10 6 0
10 -4 10 -10z m-149 -17 c13 -16 12 -17 -3 -4 -10 7 -18 15 -18 17 0 8 8 3 21
-13z m2379 -19 c-15 -17 -30 -18 -30 -1 0 7 9 13 21 14 17 2 18 -1 9 -13z
m-2626 -36 c22 -157 30 -196 48 -221 26 -37 17 -46 -11 -11 -20 25 -21 25 -21
5 0 -11 -4 -21 -10 -21 -5 0 -7 -6 -5 -12 24 -69 25 -70 40 -58 13 10 15 8 15
-14 0 -14 4 -26 10 -26 5 0 14 -15 19 -32 6 -24 10 -27 11 -13 1 11 2 24 1 29
-1 5 5 6 14 3 9 -4 15 -1 15 8 0 18 2 18 33 4 16 -7 23 -17 20 -29 -3 -10 0
-21 6 -24 7 -4 11 1 11 13 0 14 5 19 14 15 11 -4 13 0 9 15 -4 15 -1 21 11 21
11 0 15 -8 14 -25 -1 -14 -7 -25 -13 -25 -11 0 16 -20 28 -20 4 0 7 9 7 20 0
25 4 25 43 -2 56 -40 77 -61 77 -80 0 -16 -4 -15 -26 9 -16 18 -24 22 -20 11
8 -27 -9 -22 -24 6 -7 14 -19 27 -26 30 -26 10 -14 -14 26 -54 22 -22 40 -45
40 -51 0 -5 5 -7 10 -4 6 3 10 1 10 -4 0 -17 35 -48 48 -43 7 2 12 -3 12 -12
0 -9 8 -16 18 -16 9 0 23 -9 30 -21 7 -11 19 -18 26 -16 7 3 18 -4 25 -15 17
-28 1 -43 -36 -32 -15 4 -40 8 -54 8 -30 1 -62 24 -53 38 3 5 -2 15 -12 23
-25 18 -47 0 -39 -32 4 -16 0 -26 -15 -35 -11 -7 -20 -20 -20 -28 -1 -12 -4
-11 -15 4 -7 10 -18 15 -24 11 -7 -3 -11 3 -11 15 0 23 -27 56 -37 46 -4 -3
-1 -12 5 -18 7 -7 12 -16 12 -22 0 -18 -29 29 -30 47 0 11 -5 15 -11 11 -7 -4
-8 -19 -5 -37 6 -29 5 -30 -8 -12 -7 11 -12 24 -10 30 6 14 -43 71 -53 62 -4
-4 -1 -22 5 -40 7 -19 12 -40 12 -48 -1 -27 -30 24 -30 52 0 15 -6 34 -13 41
-8 7 -17 26 -21 41 -3 15 -11 25 -16 22 -6 -3 -10 4 -10 17 0 17 -3 19 -9 9
-12 -19 -23 2 -20 38 2 15 -4 39 -13 53 -13 20 -17 46 -15 116 1 50 5 85 9 79
11 -17 10 3 -2 43 -27 90 -32 190 -9 190 4 0 10 -15 13 -32z m556 22 c0 -5 -2
-10 -4 -10 -3 0 -8 5 -11 10 -3 6 -1 10 4 10 6 0 11 -4 11 -10z m-94 -22 c0
-13 2 -29 5 -37 2 -7 -1 -15 -7 -18 -15 -5 -24 53 -10 67 5 5 10 10 11 10 0 0
0 -10 1 -22z m153 8 c8 -10 9 -16 1 -21 -5 -3 -10 -1 -10 4 0 6 -9 11 -21 11
-11 0 -17 5 -14 10 9 14 31 12 44 -4z m-284 -106 c3 -5 1 -10 -4 -10 -6 0 -11
5 -11 10 0 6 2 10 4 10 3 0 8 -4 11 -10z m66 -53 c-10 -9 -11 -8 -5 6 3 10 9
15 12 12 3 -3 0 -11 -7 -18z m1559 13 c0 -5 -5 -10 -11 -10 -5 0 -7 5 -4 10 3
6 8 10 11 10 2 0 4 -4 4 -10z m1151 -7 c13 -16 12 -17 -3 -4 -17 13 -22 21
-14 21 2 0 10 -8 17 -17z m-810 -26 c-1 -12 -15 -9 -19 4 -3 6 1 10 8 8 6 -3
11 -8 11 -12z m1414 -9 c28 -13 34 -36 8 -34 -14 1 -18 -7 -18 -29 0 -16 4
-35 8 -42 4 -6 3 -14 -3 -18 -5 -3 -10 0 -10 7 0 7 -13 19 -30 26 -30 14 -44
39 -15 28 8 -3 15 -1 15 5 0 5 -10 14 -22 19 -18 7 -19 9 -5 9 9 1 17 7 17 15
0 12 5 17 27 25 1 1 14 -4 28 -11z m-1382 -16 c-7 -4 -16 -19 -22 -32 l-10
-25 0 27 c-1 24 9 35 34 37 6 0 5 -3 -2 -7z m-1938 -41 c3 -5 1 -12 -5 -16 -5
-3 -10 1 -10 9 0 18 6 21 15 7z m-213 -31 c-2 -17 -10 -30 -18 -30 -8 0 -14
-4 -14 -10 0 -5 -5 -10 -10 -10 -7 0 -7 6 0 19 5 11 10 29 10 40 0 14 6 21 18
21 15 0 18 -6 14 -30z m1091 -65 c-7 -49 -12 -56 -20 -27 -3 12 -9 22 -14 22
-5 0 -6 12 -2 28 3 15 6 36 5 47 -1 18 1 17 18 -5 15 -19 18 -34 13 -65z
m2301 61 c-3 -7 -17 -19 -31 -25 l-26 -12 24 25 c26 28 41 34 33 12z m56 4
c13 -8 13 -10 -2 -10 -9 0 -20 5 -23 10 -8 13 5 13 25 0z m-1140 -9 c0 -5 -7
-11 -15 -15 -15 -5 -20 5 -8 17 9 10 23 9 23 -2z m178 -9 c6 -18 -15 -14 -22
4 -4 10 -1 14 6 12 6 -2 14 -10 16 -16z m-2213 -2 c3 -5 1 -10 -4 -10 -6 0
-11 5 -11 10 0 6 2 10 4 10 3 0 8 -4 11 -10z m765 1 c0 -5 -7 -14 -15 -21 -16
-14 -18 -10 -9 14 6 17 24 22 24 7z m2195 -2 c11 -16 1 -19 -13 -3 -7 8 -8 14
-3 14 5 0 13 -5 16 -11z m-2452 -16 c-4 -10 -2 -14 5 -9 11 7 28 -11 19 -21
-8 -8 -67 7 -67 17 0 5 6 7 14 4 7 -3 16 2 19 10 4 9 9 16 11 16 3 0 2 -7 -1
-17z m2670 3 c6 -16 -2 -28 -14 -20 -12 7 -11 34 0 34 5 0 11 -6 14 -14z
m-3653 -29 c0 -5 -4 -5 -10 -2 -5 3 -10 14 -10 23 0 15 2 15 10 2 5 -8 10 -19
10 -23z m2064 17 c15 -14 21 -34 12 -34 -18 0 -34 14 -29 26 4 10 0 12 -13 7
-12 -4 -15 -3 -10 5 10 16 22 15 40 -4z m-1564 -14 c0 -5 -2 -10 -4 -10 -3 0
-8 5 -11 10 -3 6 -1 10 4 10 6 0 11 -4 11 -10z m444 -33 c11 -9 10 -9 -44 8
-22 7 -23 6 -12 -8 11 -13 10 -15 -10 -9 -21 5 -22 4 -9 -11 12 -15 12 -17 -3
-11 -9 3 -16 10 -16 14 0 16 32 41 45 36 8 -3 17 3 21 12 6 15 8 15 12 -3 2
-11 9 -24 16 -28z m476 33 c0 -5 -4 -10 -10 -10 -5 0 -10 5 -10 10 0 6 5 10
10 10 6 0 10 -4 10 -10z m2336 -15 c11 -27 -1 -33 -19 -9 -16 21 -16 24 -2 24
9 0 18 -7 21 -15z m-2696 -10 c-7 -8 -20 -15 -29 -15 -13 1 -13 3 3 15 26 19
42 19 26 0z m1738 -7 c-2 -12 -9 -23 -17 -26 -8 -3 -11 0 -7 7 4 6 2 11 -5 11
-8 0 -8 4 1 15 18 22 32 18 28 -7z m-2293 -6 c-3 -3 -11 0 -18 7 -9 10 -8 11
6 5 10 -3 15 -9 12 -12z m2005 -6 c0 -18 -21 -35 -36 -29 -19 7 -17 30 3 42
20 11 33 6 33 -13z m-1035 4 c-3 -5 -11 -10 -16 -10 -6 0 -7 5 -4 10 3 6 11
10 16 10 6 0 7 -4 4 -10z m2245 -12 c0 -17 -3 -19 -12 -10 -9 9 -14 8 -22 -3
-10 -12 -14 -12 -30 0 -11 8 -16 18 -11 22 4 5 10 2 12 -4 4 -10 10 -9 26 2
29 20 37 19 37 -7z m-3210 -2 c0 -11 -19 -15 -25 -6 -3 5 1 10 9 10 9 0 16 -2
16 -4z m430 -4 c0 -4 -10 -9 -22 -9 -18 -2 -20 0 -8 7 18 12 30 13 30 2z
m2680 -13 c0 -11 -4 -17 -10 -14 -5 3 -10 13 -10 21 0 8 5 14 10 14 6 0 10 -9
10 -21z m-820 -7 c0 -4 -5 -13 -12 -20 -10 -10 -5 -11 22 -7 19 3 30 3 23 -1
-17 -8 -5 -34 13 -27 8 3 14 0 14 -6 0 -6 11 -11 24 -11 35 0 56 -10 56 -26 0
-8 4 -14 9 -14 5 0 17 -12 26 -27 17 -25 17 -26 0 -19 -16 6 -16 4 -4 -11 20
-26 31 -33 55 -33 11 0 29 -7 40 -15 19 -15 19 -15 0 -30 -22 -17 -40 -20 -31
-5 3 6 2 10 -4 10 -5 0 -13 -5 -16 -10 -4 -6 -15 -8 -26 -5 -13 4 -19 2 -19
-9 0 -9 6 -16 13 -16 9 0 8 -3 -2 -9 -7 -5 -11 -13 -7 -19 3 -5 -1 -12 -9 -16
-17 -6 -21 -46 -4 -46 5 0 8 -4 4 -9 -6 -11 33 -26 42 -17 4 3 -2 6 -13 6 -18
1 -18 1 0 11 13 8 25 8 42 0 16 -7 25 -7 30 0 3 6 22 8 42 5 20 -2 43 0 50 6
7 6 15 8 18 5 12 -11 -7 -44 -32 -56 -22 -10 -26 -9 -21 3 5 13 2 13 -18 4
-13 -6 -21 -16 -18 -24 3 -8 -6 -18 -24 -25 -15 -7 -41 -18 -58 -25 -18 -8
-31 -9 -33 -3 -2 5 -8 6 -13 3 -5 -3 -27 -3 -49 1 -47 8 -44 26 8 49 25 11 29
14 12 11 -15 -2 -34 4 -47 15 -27 21 -29 30 -8 30 9 0 18 7 22 16 7 18 -42 69
-57 59 -6 -3 -10 -1 -10 4 0 6 5 11 11 11 5 0 8 4 5 9 -3 4 -17 6 -31 3 -14
-2 -31 0 -38 6 -7 6 -30 9 -52 8 -28 -3 -43 1 -52 13 -11 14 -12 14 -13 1 0
-17 -36 -21 -59 -6 -10 7 -10 10 -1 16 7 5 10 16 6 25 -5 13 -14 16 -36 11
-19 -3 -30 -1 -30 5 0 8 -6 7 -16 -2 -13 -10 -17 -10 -25 2 -8 12 -10 12 -19
-1 -7 -11 -10 -11 -10 -2 0 7 -5 10 -10 7 -6 -4 -22 0 -35 9 -18 12 -30 13
-50 6 -29 -11 -33 0 -7 23 16 15 21 15 46 1 33 -17 33 -17 39 16 7 45 17 58
39 52 18 -4 18 -6 4 -14 -9 -5 -16 -15 -16 -23 0 -11 9 -10 43 5 46 21 82 25
92 10 3 -5 13 -7 23 -4 14 5 15 4 2 -5 -12 -8 -12 -13 -3 -22 18 -18 30 18 14
43 -7 11 -8 17 -3 14 5 -3 16 2 23 11 12 15 12 16 -4 10 -11 -4 -16 -3 -12 4
4 6 14 8 22 5 9 -4 26 6 42 23 29 31 81 52 81 33z m440 -23 c0 -18 -18 -9 -23
12 -4 16 -3 18 9 8 8 -6 14 -15 14 -20z m515 4 c-2 -16 -4 -34 -4 -41 -1 -7
-5 -10 -11 -7 -6 3 -7 -1 -4 -9 4 -11 0 -16 -15 -16 -12 0 -21 5 -21 10 0 6 5
10 10 10 15 0 12 27 -4 42 -12 11 -9 15 18 25 17 6 32 12 33 12 1 1 0 -11 -2
-26z m-2835 7 c0 -5 -4 -10 -9 -10 -6 0 -13 5 -16 10 -3 6 1 10 9 10 9 0 16
-4 16 -10z m47 -22 c-3 -8 -6 -5 -6 6 -1 11 2 17 5 13 3 -3 4 -12 1 -19z m43
12 c0 -5 -8 -10 -17 -10 -15 0 -16 2 -3 10 19 12 20 12 20 0z m37 4 c-3 -3
-12 -4 -19 -1 -8 3 -5 6 6 6 11 1 17 -2 13 -5z m-94 -25 c3 -13 1 -19 -6 -16
-15 5 -22 37 -9 37 5 0 12 -9 15 -21z m2854 10 c-9 -6 -15 -14 -12 -20 7 -10
-8 -13 -18 -3 -12 12 6 34 27 34 19 -1 19 -2 3 -11z m-1435 -14 c0 -5 -5 -11
-11 -13 -6 -2 -11 4 -11 13 0 9 5 15 11 13 6 -2 11 -8 11 -13z m167 -14 c-15
-5 -22 6 -14 19 6 9 10 9 16 -1 5 -8 4 -15 -2 -18z m1149 20 c11 -7 10 -10 -3
-15 -20 -7 -38 1 -30 15 7 11 16 11 33 0z m-3063 -11 c3 -5 2 -10 -4 -10 -5 0
-13 5 -16 10 -3 6 -2 10 4 10 5 0 13 -4 16 -10z m2335 6 c0 -11 -19 -15 -25
-6 -3 5 1 10 9 10 9 0 16 -2 16 -4z m-1500 -26 c0 -5 -7 -7 -15 -4 -8 4 -15 8
-15 10 0 2 7 4 15 4 8 0 15 -4 15 -10z m95 -17 c-19 -13 -35 -17 -35 -9 0 12
33 35 42 30 7 -5 4 -12 -7 -21z m-870 6 c11 -17 -1 -21 -15 -4 -8 9 -8 15 -2
15 6 0 14 -5 17 -11z m1485 7 c0 -2 -7 -6 -15 -10 -8 -3 -15 -1 -15 4 0 6 7
10 15 10 8 0 15 -2 15 -4z m130 -6 c0 -5 -4 -10 -10 -10 -5 0 -10 5 -10 10 0
6 5 10 10 10 6 0 10 -4 10 -10z m-795 -30 c3 -5 1 -10 -4 -10 -6 0 -11 5 -11
10 0 6 2 10 4 10 3 0 8 -4 11 -10z m-1070 -10 c3 -5 1 -10 -4 -10 -6 0 -11 5
-11 10 0 6 2 10 4 10 3 0 8 -4 11 -10z m1875 1 c0 -12 -20 -25 -27 -18 -7 7 6
27 18 27 5 0 9 -4 9 -9z m-488 -31 c-2 -8 4 -11 18 -7 15 4 20 0 20 -14 0 -28
-23 -33 -59 -15 -22 12 -30 23 -29 40 2 20 6 22 28 16 14 -4 24 -13 22 -20z
m-162 -5 c0 -8 -4 -15 -10 -15 -5 0 -10 7 -10 15 0 8 5 15 10 15 6 0 10 -7 10
-15z m-420 -50 c-13 -15 -60 -21 -60 -7 1 11 64 38 68 29 2 -4 -2 -14 -8 -22z
m290 10 c0 -8 -4 -15 -9 -15 -13 0 -22 16 -14 24 11 11 23 6 23 -9z m1993 -5
c10 0 15 -5 12 -11 -4 -5 -12 -8 -18 -6 -7 2 -20 -2 -29 -11 -16 -14 -18 -13
-18 1 0 10 6 17 13 18 9 0 9 2 -1 6 -6 2 -9 9 -6 15 4 6 10 6 17 -1 6 -6 19
-11 30 -11z m-1963 0 c0 -5 6 -8 13 -6 6 1 9 1 5 -1 -5 -3 -3 -13 2 -24 7 -13
7 -19 0 -19 -5 0 -10 6 -10 14 0 8 -7 16 -15 20 -17 6 -21 26 -5 26 6 0 10 -4
10 -10z m860 -19 c0 -23 4 -28 18 -24 15 3 18 -1 16 -19 -1 -13 -3 -26 -3 -31
-1 -8 -31 -21 -76 -31 -29 -6 -29 -6 -10 9 17 14 18 17 5 25 -8 5 -21 10 -27
10 -18 0 -16 22 3 46 15 19 15 19 9 -2 -8 -29 27 -60 52 -45 17 10 16 10 -3
11 -12 0 -24 7 -28 15 -3 8 -2 15 3 15 5 0 12 11 15 25 9 34 26 32 26 -4z
m1020 23 c0 -3 -6 -12 -14 -20 -8 -7 -16 -19 -19 -26 -2 -7 -7 -10 -11 -6 -9
7 22 58 35 58 5 0 9 -3 9 -6z m145 -20 c-28 -21 -55 -36 -55 -29 0 6 62 45 70
45 3 -1 -4 -8 -15 -16z m-1765 -9 c0 -8 -7 -15 -15 -15 -16 0 -20 12 -8 23 11
12 23 8 23 -8z m-1043 -8 c13 -14 14 -49 1 -44 -7 2 -12 12 -12 21 1 10 -6 16
-17 16 -10 0 -19 4 -19 10 0 11 35 8 47 -3z m537 -18 c-5 -8 26 -14 49 -10 5
1 6 -3 2 -9 -3 -5 1 -10 11 -10 12 0 14 -3 6 -12 -6 -7 -10 -17 -10 -23 0 -5
-10 -12 -21 -17 -22 -8 -30 6 -8 16 6 4 2 4 -10 2 -31 -6 -73 15 -73 36 0 9
-4 20 -10 23 -16 10 -12 28 5 21 8 -3 15 -1 15 4 0 6 10 5 25 -2 13 -6 22 -15
19 -19z m572 4 c-3 -8 -6 -18 -6 -23 0 -4 -7 -10 -14 -13 -10 -4 -13 -1 -9 9
3 8 -1 14 -11 14 -9 0 -16 6 -16 13 0 20 8 25 36 19 17 -3 23 -9 20 -19z m52
8 c3 -8 -1 -12 -9 -9 -7 2 -15 10 -17 17 -3 8 1 12 9 9 7 -2 15 -10 17 -17z
m-790 -62 c-21 -16 -23 -16 -36 2 -10 15 -17 17 -32 9 -11 -6 -17 -17 -14 -25
5 -11 -1 -15 -22 -14 -25 0 -26 1 -9 9 18 8 17 9 -7 9 -34 1 -55 34 -36 55 14
14 45 3 61 -21 10 -16 34 -6 40 17 8 29 50 30 65 0 12 -22 11 -26 -10 -41z
m391 40 c-16 -10 -23 -4 -14 10 3 6 11 8 17 5 6 -4 5 -9 -3 -15z m-714 1 c4
-6 12 -7 18 -3 12 8 60 12 52 5 -2 -2 5 -20 16 -39 33 -59 33 -119 0 -79 -9
11 -9 15 1 19 17 7 -12 29 -29 22 -7 -2 -17 4 -23 14 -5 10 -20 21 -34 25 -26
6 -44 46 -21 46 8 0 17 -5 20 -10z m2894 -60 c0 -18 -2 -21 -8 -11 -5 7 -14
10 -20 7 -6 -4 -11 0 -11 8 0 9 5 16 10 16 6 0 10 12 11 28 l1 27 8 -25 c4
-14 8 -36 9 -50z m-289 50 c0 -5 -7 -10 -15 -10 -8 0 -15 5 -15 10 0 6 7 10
15 10 8 0 15 -4 15 -10z m100 -5 c7 -9 10 -18 6 -22 -3 -3 -6 -1 -6 6 0 8 -7
10 -20 6 -15 -5 -18 -3 -14 9 8 20 18 20 34 1z m73 -25 c-3 -11 -12 -20 -19
-20 -19 0 -18 16 2 24 8 3 12 11 8 17 -4 7 -3 9 4 6 5 -4 8 -16 5 -27z m-3430
0 c3 -11 1 -18 -4 -14 -5 3 -9 12 -9 20 0 20 7 17 13 -6z m436 -36 c3 -18 2
-18 -16 -1 -11 9 -27 17 -36 17 -20 0 -23 16 -4 23 17 7 51 -17 56 -39z m1936
36 c3 -5 1 -10 -4 -10 -6 0 -11 5 -11 10 0 6 2 10 4 10 3 0 8 -4 11 -10z m827
-7 c4 -2 10 -19 14 -38 10 -54 28 -57 22 -4 -3 24 -4 38 -1 31 4 -10 10 -9 26
5 20 17 20 17 13 -1 -5 -15 -4 -17 8 -7 11 9 18 7 34 -14 11 -14 25 -25 31
-25 19 0 12 -39 -9 -50 -16 -9 -20 -8 -20 5 0 8 -4 15 -10 15 -5 0 -10 7 -10
15 0 8 -6 15 -14 15 -8 0 -16 6 -19 13 -3 6 -4 2 -4 -10 1 -13 7 -23 14 -23
15 0 16 -9 4 -29 -5 -7 -14 -10 -20 -7 -6 4 -11 2 -11 -3 0 -6 6 -11 13 -11
15 0 97 -39 83 -40 -5 0 -7 -2 -4 -5 3 -3 22 2 42 11 28 14 33 20 25 31 -15
17 -29 16 -44 -3 -6 -9 -18 -15 -25 -12 -9 3 -1 16 23 41 23 22 43 34 52 31
17 -7 20 -20 5 -29 -16 -10 11 -43 30 -38 10 3 21 -1 25 -8 5 -8 4 -10 -3 -5
-7 4 -12 1 -12 -7 0 -18 -27 -30 -43 -20 -8 4 -7 1 1 -9 7 -8 10 -22 7 -30
-10 -26 37 -32 57 -8 18 22 38 26 55 9 12 -12 6 -49 -8 -49 -5 0 -9 -5 -9 -11
0 -5 4 -8 9 -4 16 9 20 -9 6 -28 -8 -12 -15 -14 -20 -8 -3 6 0 11 7 11 10 0
10 2 -1 9 -8 5 -11 16 -7 29 6 17 3 19 -14 15 -19 -5 -21 -10 -15 -47 9 -51
20 -64 43 -50 13 9 21 8 30 -2 14 -15 9 -17 -23 -15 -15 2 -17 0 -6 -7 18 -12
5 -32 -20 -32 -12 0 -25 -13 -36 -36 -17 -35 -63 -64 -102 -64 -9 0 -27 -6
-41 -13 -29 -14 -35 -14 -73 1 -22 10 -31 9 -47 -5 -15 -13 -17 -19 -7 -26 8
-6 4 -7 -10 -4 -12 3 -24 0 -26 -6 -2 -7 -11 0 -21 15 -19 29 -46 28 -46 -1 0
-25 -11 -33 -27 -19 -18 15 -29 2 -14 -16 9 -11 9 -16 0 -21 -8 -6 -7 -10 5
-17 9 -5 14 -13 11 -19 -4 -5 -2 -9 4 -9 5 0 16 -3 25 -6 11 -4 16 0 17 12 0
15 2 14 10 -5 7 -19 6 -28 -6 -40 -11 -11 -15 -12 -15 -3 0 7 -5 10 -11 6 -8
-4 -8 -9 0 -17 10 -10 16 -57 7 -57 -2 0 -11 -3 -20 -6 -10 -4 -16 -1 -16 9 0
8 -9 26 -20 40 -11 14 -20 35 -20 47 0 13 -5 20 -12 17 -13 -4 -13 -13 -2 -74
4 -20 3 -33 -4 -33 -5 0 -8 9 -5 20 4 14 0 20 -12 20 -12 0 -15 -5 -10 -20 4
-11 2 -20 -4 -20 -6 0 -11 5 -11 11 0 7 -9 9 -24 5 -13 -3 -26 -2 -28 2 -4 10
-89 54 -94 49 -2 -2 5 -12 16 -22 22 -20 27 -51 8 -57 -9 -3 -8 -9 3 -21 12
-11 37 -17 87 -18 64 -2 70 -4 86 -29 21 -37 21 -36 -16 -45 l-33 -7 28 -10
c15 -5 27 -14 27 -19 0 -5 7 -9 15 -9 18 0 20 -20 3 -21 -7 0 -6 -3 3 -7 13
-5 14 -13 8 -31 -7 -18 -14 -22 -32 -16 -42 13 -197 18 -197 6 0 -6 5 -11 11
-11 6 0 17 -7 25 -15 20 -20 94 -20 94 -1 0 10 7 12 23 9 53 -14 58 -43 6 -43
-17 0 -28 -4 -25 -9 4 -5 -11 -12 -33 -16 -22 -3 -49 -17 -62 -31 -12 -13 -33
-24 -46 -24 -24 0 -31 15 -10 23 7 3 5 6 -5 6 -20 1 -22 -7 -9 -42 8 -21 6
-25 -24 -36 -20 -7 -35 -21 -39 -34 -7 -26 -34 -57 -63 -74 -27 -15 -143 -27
-143 -14 0 12 -68 5 -85 -9 -7 -6 -23 -13 -35 -15 -16 -3 -20 0 -16 13 7 20
-10 50 -21 39 -4 -5 -1 -12 7 -17 9 -6 10 -10 3 -10 -6 0 -19 7 -28 16 -12 13
-19 14 -30 4 -11 -9 -15 -9 -15 -1 0 6 -9 11 -20 11 -11 0 -20 5 -20 11 0 6
-9 8 -20 4 -11 -4 -20 -2 -20 4 0 10 28 16 58 12 6 -1 12 3 12 9 0 5 20 10 44
10 24 0 57 7 72 15 29 15 29 15 4 15 l-24 0 21 15 c16 11 40 14 82 12 34 -2
59 -1 56 1 -8 9 66 31 81 25 8 -3 14 0 14 6 0 6 -17 11 -40 11 -22 0 -48 4
-58 10 -21 12 -203 40 -296 46 -38 3 -77 9 -87 14 -20 11 -126 16 -136 6 -3
-3 3 -6 15 -6 12 0 41 -4 64 -10 87 -20 224 -42 287 -47 36 -2 68 -7 71 -10 3
-3 -89 -2 -205 2 -262 9 -401 12 -386 7 6 -2 11 -7 11 -12 0 -5 -36 -8 -79 -7
-56 1 -77 -1 -70 -9 5 -6 30 -9 56 -8 27 1 104 2 173 2 69 0 158 0 199 1 101
1 80 -17 -24 -23 -96 -5 -93 -4 -76 -15 10 -6 7 -9 -10 -10 -13 -1 -37 -3 -54
-4 -18 -1 -29 3 -28 9 1 7 -13 14 -32 16 -19 2 -35 1 -35 -2 0 -12 -75 -28
-92 -19 -9 5 -36 9 -60 8 -162 -3 -298 2 -298 11 0 5 -7 10 -15 10 -8 0 -15
-7 -15 -15 0 -12 -13 -15 -55 -15 -30 0 -55 -4 -55 -10 0 -5 -13 -10 -30 -10
-16 0 -30 5 -30 10 0 6 7 10 15 10 8 0 15 5 15 10 0 6 10 10 21 10 18 0 19 2
9 15 -10 12 -9 15 7 15 10 0 24 5 29 10 13 13 132 13 209 0 68 -11 155 -21
155 -17 0 1 -4 17 -9 35 -5 17 -6 32 -2 32 3 0 7 9 7 20 0 13 -6 19 -16 17 -9
-1 -14 -11 -12 -22 2 -15 0 -16 -6 -7 -5 7 -7 24 -4 38 2 14 0 24 -7 24 -6 0
-11 -7 -11 -16 0 -9 -6 -14 -12 -11 -7 2 -12 10 -10 16 3 16 -44 14 -61 -4 -8
-8 -18 -11 -21 -8 -4 4 4 13 16 20 20 11 21 12 4 13 -15 0 -16 3 -6 15 15 18
74 20 88 2 13 -15 93 -17 89 -2 -2 10 -5 11 -45 13 -22 2 -22 3 -7 19 10 9 20
12 23 7 4 -5 26 -10 50 -9 23 0 42 -3 42 -7 0 -5 -5 -8 -12 -8 -6 0 -9 -3 -6
-6 4 -3 15 -1 26 5 13 7 22 7 30 -1 8 -8 15 -8 25 0 8 7 17 9 20 5 4 -3 7 -2
7 4 0 16 -42 30 -82 27 -35 -3 -36 -2 -20 15 9 9 19 14 22 9 3 -4 14 2 24 14
13 15 15 23 6 28 -8 5 -7 9 5 13 9 4 18 1 21 -8 4 -9 18 -14 33 -14 15 1 19 3
9 6 -11 3 -15 10 -11 20 4 10 2 14 -5 9 -6 -3 -13 -2 -16 3 -3 5 1 12 10 15
13 5 14 9 4 21 -10 12 -10 15 0 15 7 0 10 7 6 15 -3 8 0 15 6 15 8 0 9 3 2 10
-5 5 -28 10 -52 12 -28 2 -42 8 -42 17 0 11 12 12 56 7 50 -6 56 -4 61 14 6
24 7 24 35 8 48 -28 80 -66 43 -52 -8 3 -28 -4 -45 -16 -16 -12 -34 -18 -40
-15 -13 8 -13 2 1 -29 13 -27 30 -34 67 -28 27 5 29 22 3 22 -24 0 -33 13 -25
34 5 14 9 14 22 4 8 -7 27 -19 41 -26 14 -7 18 -10 9 -7 -22 6 -24 -13 -2 -22
8 -3 28 4 44 16 36 26 49 27 26 2 -17 -19 -7 -39 14 -26 5 3 20 -1 31 -9 15
-10 28 -12 45 -6 13 5 31 7 39 4 9 -4 15 0 15 8 0 8 6 15 13 16 34 3 73 17 85
29 7 7 20 13 28 13 8 0 14 4 14 9 0 11 -33 9 -41 -3 -4 -5 -11 0 -17 11 -11
19 -6 22 51 26 9 1 17 9 17 19 0 10 -3 17 -7 17 -13 -3 -73 25 -73 33 0 4 -9
8 -20 8 -25 0 -25 4 2 35 16 18 24 22 29 13 5 -9 13 -1 23 22 8 19 15 28 16
19 0 -25 29 -44 66 -44 32 0 49 13 22 17 -12 1 -21 3 -43 8 -5 2 13 6 40 10
32 5 55 3 64 -4 12 -9 13 -8 9 6 -4 9 -1 19 7 22 9 3 12 0 8 -10 -3 -9 1 -14
13 -14 11 0 30 -3 43 -7 16 -4 22 -3 17 5 -13 21 34 24 67 4 32 -20 54 -19 72
3 17 21 61 27 75 10 10 -12 15 -11 33 6 12 12 32 25 45 30 22 9 31 29 11 29
-5 0 -7 5 -3 11 3 6 0 15 -7 20 -11 7 -10 9 4 9 10 0 15 5 12 10 -3 6 -15 10
-25 10 -16 0 -18 4 -11 22 4 12 13 23 20 24 6 1 7 0 1 -3 -20 -10 -9 -22 19
-21 19 1 28 5 24 14 -2 7 4 14 14 16 11 2 18 12 18 28 0 18 5 24 17 22 17 -3
51 36 42 49 -2 4 0 10 6 14 19 12 22 -25 5 -63 -10 -20 -20 -41 -22 -47 -5
-12 26 24 45 51 11 17 12 17 8 2 -3 -10 -2 -18 2 -18 11 0 62 85 62 104 0 23
17 54 46 83 26 26 28 35 15 61 -5 9 -12 25 -15 34 -3 12 -11 16 -23 11 -15 -5
-16 -3 -5 8 18 19 15 28 -8 22 -12 -3 -20 0 -20 6 0 7 -4 9 -10 6 -12 -7 -12
-3 -4 19 6 14 40 14 66 -1z m-2694 -11 c2 -7 -2 -10 -12 -6 -9 3 -16 11 -16
16 0 13 23 5 28 -10z m932 -8 c0 -9 5 -12 11 -8 7 4 10 1 7 -7 -8 -23 -35 -22
-41 2 -3 12 -4 26 -1 31 8 12 24 0 24 -18z m80 -4 c0 -12 -28 -25 -36 -17 -9
9 6 27 22 27 8 0 14 -5 14 -10z m230 -5 c-7 -8 -17 -15 -22 -15 -6 0 -5 7 2
15 7 8 17 15 22 15 6 0 5 -7 -2 -15z m-465 -19 c19 -18 25 -31 20 -45 -6 -20
-35 -30 -35 -12 0 5 -14 11 -31 15 -17 3 -28 10 -25 15 4 5 3 11 -1 14 -5 2
-3 2 4 1 18 -4 37 23 21 29 -9 4 -7 6 4 6 9 1 29 -10 43 -23z m1585 20 c0 -3
-4 -8 -10 -11 -5 -3 -10 -1 -10 4 0 6 5 11 10 11 6 0 10 -2 10 -4z m-2725 -26
c-3 -4 2 -11 11 -14 8 -3 12 -11 9 -16 -10 -16 -35 8 -35 32 0 10 5 16 10 13
6 -4 8 -10 5 -15z m3353 2 c2 -7 -2 -10 -12 -6 -9 3 -16 11 -16 16 0 13 23 5
28 -10z m-2971 -7 c12 -8 27 -13 35 -12 7 2 10 2 5 0 -11 -7 2 -23 19 -23 8 0
23 -9 34 -20 14 -14 16 -20 6 -20 -7 0 -19 7 -26 15 -7 8 -27 17 -46 21 -19 3
-34 12 -34 20 0 8 -6 14 -14 14 -8 0 -18 5 -21 10 -9 15 18 12 42 -5z m443 0
c0 -8 6 -15 14 -15 9 0 12 -7 9 -20 -7 -26 -15 -25 -63 5 -42 27 -52 40 -22
31 9 -3 24 -1 32 4 21 14 30 12 30 -5z m800 5 c0 -5 -4 -10 -10 -10 -5 0 -10
5 -10 10 0 6 5 10 10 10 6 0 10 -4 10 -10z m-1831 -47 c12 -24 17 -43 12 -43
-8 0 -41 70 -41 87 0 10 6 1 29 -44z m141 37 c0 -5 -2 -10 -4 -10 -3 0 -8 5
-11 10 -3 6 -1 10 4 10 6 0 11 -4 11 -10z m130 -7 c21 -18 27 -48 11 -58 -12
-7 -41 34 -41 57 0 22 5 22 30 1z m1720 1 c0 -8 -4 -12 -10 -9 -5 3 -10 10
-10 16 0 5 5 9 10 9 6 0 10 -7 10 -16z m1115 6 c-3 -5 -12 -10 -18 -10 -7 0
-6 4 3 10 19 12 23 12 15 0z m-1163 -22 c-3 -12 -10 -17 -19 -14 -8 4 -26 9
-39 12 -37 10 -28 19 20 20 38 1 43 -1 38 -18z m1585 16 c-3 -3 -12 -4 -19 -1
-8 3 -5 6 6 6 11 1 17 -2 13 -5z m-1047 -24 c0 -5 -7 -10 -15 -10 -8 0 -15 5
-15 10 0 6 7 10 15 10 8 0 15 -4 15 -10z m691 -45 c22 -7 26 -35 4 -35 -10 0
-15 -10 -15 -34 0 -30 -4 -36 -35 -46 -19 -6 -35 -17 -36 -23 0 -9 -2 -9 -5 0
-3 7 0 22 7 35 23 41 21 58 -6 58 -14 0 -25 6 -25 13 0 20 22 37 47 37 16 0
25 8 30 28 l8 27 3 -27 c2 -16 11 -30 23 -33z m-2313 27 c2 -7 -2 -10 -11 -6
-8 3 -18 1 -22 -5 -3 -6 -14 -11 -23 -11 -15 1 -15 2 1 11 9 6 15 15 11 20 -4
7 3 9 17 7 12 -1 24 -9 27 -16z m455 -11 c-4 -3 -11 -10 -15 -15 -5 -5 -8 0
-8 12 0 15 4 20 16 15 9 -3 12 -9 7 -12z m-306 3 c-3 -3 -12 -4 -19 -1 -8 3
-5 6 6 6 11 1 17 -2 13 -5z m476 -1 c-7 -2 -19 -2 -25 0 -7 3 -2 5 12 5 14 0
19 -2 13 -5z m1107 -2 c0 -6 -4 -13 -10 -16 -5 -3 -10 1 -10 9 0 9 5 16 10 16
6 0 10 -4 10 -9z m-2260 -22 c0 -11 -4 -18 -10 -14 -5 3 -7 12 -3 20 7 21 13
19 13 -6z m589 -9 c11 0 21 -4 21 -9 0 -20 39 -18 53 2 13 19 16 20 31 8 14
-12 19 -12 25 -2 6 9 11 0 15 -23 4 -20 11 -34 17 -31 5 4 7 12 4 18 -3 7 2 2
11 -10 9 -13 25 -23 35 -23 22 0 24 -11 7 -28 -9 -9 -8 -12 5 -12 9 0 17 6 17
14 0 9 7 12 20 9 11 -3 26 -1 33 4 6 5 25 10 40 11 28 2 28 2 -15 -40 -23 -23
-43 -47 -44 -52 -4 -36 -4 -37 -23 -27 -14 8 -22 7 -31 -4 -6 -8 -9 -18 -6
-23 3 -4 -9 -6 -25 -4 -29 4 -29 5 -13 23 16 18 16 19 -2 19 -14 0 -16 2 -5 9
9 6 10 11 2 15 -6 4 -8 13 -4 19 4 7 -1 6 -10 -2 -22 -18 -26 -13 -29 32 -2
20 -7 37 -13 37 -5 0 -1 7 9 15 11 8 17 18 13 21 -4 4 -14 1 -23 -7 -10 -8
-27 -13 -38 -12 -12 1 -15 0 -9 -3 10 -4 10 -10 -1 -26 -8 -11 -12 -27 -9 -34
6 -17 -11 -18 -38 -4 -16 9 -19 7 -19 -8 0 -11 -9 -22 -19 -25 -27 -7 -34 3
-14 18 16 12 16 14 -1 40 -10 15 -21 24 -24 20 -4 -3 -12 9 -18 27 -8 20 -13
26 -13 14 -1 -15 -4 -16 -16 -6 -8 7 -15 10 -15 6 0 -4 -11 1 -24 9 -14 9 -32
15 -42 13 -11 -2 -20 4 -22 15 -4 18 22 24 33 7 3 -5 11 -10 16 -10 6 0 7 5 4
10 -3 6 -2 10 4 10 5 0 13 -5 16 -10 3 -6 18 -7 33 -3 15 4 35 6 45 5 10 0 15
4 11 11 -3 7 1 4 9 -5 8 -10 24 -18 36 -18z m-559 10 c0 -5 -2 -10 -4 -10 -3
0 -8 5 -11 10 -3 6 -1 10 4 10 6 0 11 -4 11 -10z m100 -6 c0 -8 -4 -12 -10 -9
-5 3 -10 10 -10 16 0 5 5 9 10 9 6 0 10 -7 10 -16z m810 4 c0 -4 -9 -8 -21 -8
-11 0 -18 4 -15 8 3 5 12 9 21 9 8 0 15 -4 15 -9z m137 -15 c12 -25 3 -29 -28
-13 -10 6 -19 17 -19 25 0 22 35 13 47 -12z m93 16 c12 -9 11 -10 -7 -6 -19 4
-23 1 -23 -20 0 -22 -2 -24 -15 -13 -8 7 -15 9 -15 6 0 -4 -7 0 -16 9 -9 9
-13 19 -9 23 4 4 10 1 12 -5 4 -10 10 -9 26 2 25 18 27 18 47 4z m470 -24 c-7
-9 -15 -13 -19 -10 -3 3 1 10 9 15 21 14 24 12 10 -5z m682 -10 c-5 -24 -2
-21 -28 -29 -12 -4 -28 0 -40 10 -18 15 -18 15 4 4 18 -9 22 -8 22 5 0 8 -9
15 -21 15 -11 0 -18 4 -15 9 3 4 22 8 43 7 32 -1 37 -4 35 -21z m-2589 -47
c-2 -4 3 -5 11 -2 11 4 19 -2 26 -20 5 -14 14 -26 20 -26 5 0 10 -11 10 -25 0
-14 -6 -25 -13 -25 -18 0 -38 27 -71 95 -27 59 -27 59 -4 35 13 -14 23 -28 21
-32z m1797 32 c-27 -21 -55 -26 -65 -10 -7 12 30 29 65 29 l25 1 -25 -20z
m-1450 6 c0 -3 -4 -8 -10 -11 -5 -3 -10 -1 -10 4 0 6 5 11 10 11 6 0 10 -2 10
-4z m1590 -6 c0 -5 -4 -10 -10 -10 -5 0 -10 5 -10 10 0 6 5 10 10 10 6 0 10
-4 10 -10z m-1689 -22 c11 -21 11 -22 -4 -9 -10 7 -17 17 -17 22 0 15 9 10 21
-13z m969 18 c0 -2 -7 -6 -15 -10 -8 -3 -15 -1 -15 4 0 6 7 10 15 10 8 0 15
-2 15 -4z m435 -16 c3 -5 2 -10 -4 -10 -5 0 -13 5 -16 10 -3 6 -2 10 4 10 5 0
13 -4 16 -10z m365 -10 c0 -5 -5 -10 -11 -10 -5 0 -7 5 -4 10 3 6 8 10 11 10
2 0 4 -4 4 -10z m1585 -9 c7 -22 -10 -71 -25 -71 -5 0 -10 5 -10 10 0 6 5 10
10 10 6 0 10 4 10 9 0 5 -9 7 -20 4 -24 -6 -25 0 -4 32 19 30 31 32 39 6z
m-1015 -1 c-8 -5 -22 -9 -30 -9 -10 0 -8 3 5 9 27 12 43 12 25 0z m306 -36
c-8 -16 -16 -23 -17 -16 -1 6 -2 18 -3 25 -3 19 16 39 26 29 6 -6 4 -21 -6
-38z m-2226 26 c0 -5 -4 -10 -10 -10 -5 0 -10 5 -10 10 0 6 5 10 10 10 6 0 10
-4 10 -10z m682 -22 c12 -12 26 -17 38 -13 11 4 22 0 27 -10 10 -18 43 -10 43
10 0 7 7 18 16 26 13 11 14 9 8 -17 -4 -16 -11 -32 -16 -35 -5 -3 12 -6 37 -7
34 -2 45 1 45 13 0 25 30 17 40 -11 6 -14 14 -22 20 -19 5 3 10 -1 10 -9 0
-20 -5 -20 -34 -1 -20 13 -28 13 -74 0 -29 -9 -56 -13 -61 -10 -5 3 -12 -1
-14 -7 -4 -10 -8 -10 -15 1 -8 11 -14 12 -24 4 -7 -6 -25 -13 -40 -17 -16 -3
-28 -11 -28 -16 0 -18 -20 -10 -21 8 0 10 -3 12 -6 4 -2 -6 -9 -9 -14 -6 -6 3
-18 -4 -28 -15 -22 -26 -31 -27 -31 -3 -1 15 -2 15 -15 -3 -28 -39 -34 -43
-55 -38 -13 4 -19 11 -16 20 3 8 6 21 6 29 0 8 9 14 19 14 30 0 51 11 51 26 0
8 7 17 15 20 8 4 15 12 15 20 0 8 4 14 8 14 4 0 16 13 25 30 19 32 36 31 69
-2z m733 22 c-3 -5 -11 -10 -16 -10 -6 0 -7 5 -4 10 3 6 11 10 16 10 6 0 7 -4
4 -10z m881 -17 c-2 -15 -8 -29 -15 -31 -9 -3 -9 -8 1 -20 10 -12 10 -16 1
-19 -7 -3 -13 -9 -13 -15 0 -6 7 -8 15 -4 8 3 15 1 15 -4 0 -17 -47 -11 -54 6
-9 24 -7 36 5 28 6 -4 10 1 8 12 -5 31 10 74 26 74 9 0 13 -9 11 -27z m-2630
-25 c12 -23 12 -29 3 -26 -8 3 -16 15 -19 27 -3 12 -9 22 -15 21 -5 -1 -11 3
-13 9 -8 24 30 -3 44 -31z m301 20 c-3 -8 -6 -5 -6 6 -1 11 2 17 5 13 3 -3 4
-12 1 -19z m950 -4 c-2 -2 -12 -1 -22 3 -18 6 -18 7 1 13 17 7 33 -5 21 -16z
m461 0 c6 -11 16 -14 31 -9 12 3 18 11 15 17 -4 6 3 5 16 -2 15 -8 20 -18 16
-31 -3 -10 -9 -28 -12 -39 -5 -16 -2 -20 16 -20 19 0 20 2 10 15 -10 12 -10
15 3 15 8 0 17 -9 20 -19 4 -18 14 -20 78 -20 89 1 143 13 170 40 17 17 20 17
25 4 4 -8 12 -15 20 -15 23 0 16 -18 -8 -22 -12 -2 -23 -9 -26 -16 -3 -9 3
-11 22 -6 18 4 26 2 26 -7 -1 -23 -55 -76 -86 -83 -16 -4 -32 -13 -36 -19 -5
-8 -8 -6 -8 6 0 10 -4 15 -10 12 -5 -3 -10 -4 -10 -1 0 2 -2 11 -5 18 -4 10 3
14 25 13 20 0 30 -5 30 -15 0 -9 3 -11 8 -4 4 6 16 14 27 18 19 8 19 8 -3 17
-12 5 -25 15 -28 24 -8 19 -24 20 -24 0 0 -8 -5 -15 -12 -15 -6 0 -21 -9 -32
-19 -12 -11 -34 -22 -51 -26 -16 -4 -25 -3 -20 2 6 4 18 23 28 41 19 34 11 40
-26 20 -20 -10 -21 -10 -8 5 11 15 11 17 -2 17 -8 0 -20 -7 -27 -15 -10 -12
-10 -15 1 -15 8 0 0 -8 -17 -19 -31 -19 -104 -33 -104 -19 0 12 -64 -4 -73
-19 -10 -17 -27 -17 -27 0 0 11 -18 13 -75 12 -60 -2 -78 1 -94 16 -10 10 -22
15 -26 11 -6 -5 3 38 9 44 0 1 24 -2 51 -6 28 -4 61 -4 74 1 23 9 23 10 6 29
-19 21 -13 40 15 40 10 0 20 6 23 13 3 9 8 9 21 -2 21 -18 33 -7 16 14 -7 9
-20 13 -29 10 -11 -4 -13 -3 -6 4 6 5 21 11 35 14 14 2 28 5 32 6 4 0 11 -6
16 -15z m982 -54 c0 -5 -11 -3 -25 3 -13 7 -20 13 -15 15 5 2 7 11 4 20 -4 12
1 9 15 -7 12 -13 21 -27 21 -31z m77 18 c-3 -8 -6 -5 -6 6 -1 11 2 17 5 13 3
-3 4 -12 1 -19z m-302 -21 c19 -5 19 -5 -2 -12 -23 -8 -39 -55 -17 -55 7 0 16
5 19 10 3 6 11 10 16 10 6 0 7 -4 4 -10 -3 -5 -2 -10 4 -10 5 0 13 5 16 10 12
19 30 10 30 -15 0 -14 -4 -25 -9 -25 -4 0 -5 -7 -2 -17 7 -18 -26 -55 -46 -51
-7 2 -12 -5 -12 -14 1 -10 -2 -18 -7 -18 -11 0 -12 24 -2 34 11 11 11 50 1 64
-14 16 -21 15 -48 -8 -13 -11 -18 -20 -12 -20 7 0 12 -4 12 -10 0 -5 -11 -10
-25 -10 -14 0 -25 5 -25 11 0 5 -5 7 -12 3 -8 -5 -9 -2 -5 9 3 9 2 19 -3 22
-5 3 -12 -4 -15 -15 -5 -16 -14 -20 -33 -18 -37 4 -41 39 -7 55 26 12 33 5 13
-15 -6 -6 -9 -14 -6 -17 3 -3 13 1 21 10 9 8 22 15 30 15 8 0 20 7 27 15 8 10
9 15 2 15 -6 0 -9 7 -6 15 4 8 2 15 -4 15 -5 0 -12 -6 -15 -14 -4 -9 -18 -14
-39 -13 -29 2 -33 5 -30 26 3 29 13 41 19 24 7 -18 43 -16 43 2 0 10 10 15 30
15 28 0 29 -2 20 -26 -9 -22 -7 -25 7 -22 10 2 18 10 19 18 4 55 4 56 17 39 7
-9 21 -19 32 -22z m-2685 -25 c9 -26 21 -47 28 -47 15 0 33 -26 26 -37 -3 -5
5 -21 17 -36 12 -15 20 -20 17 -12 -20 53 -20 55 6 27 16 -18 25 -36 21 -46
-6 -20 53 -104 86 -121 11 -6 18 -17 16 -23 -4 -13 21 -42 29 -34 11 11 54
-37 54 -60 0 -14 6 -23 15 -23 8 0 15 -6 15 -14 0 -8 7 -16 15 -20 8 -3 15 0
15 7 0 6 15 -12 34 -41 39 -59 75 -93 126 -119 19 -10 37 -21 40 -24 3 -3 23
-12 45 -19 22 -7 58 -22 81 -32 46 -21 71 -23 76 -7 2 7 18 -2 35 -20 17 -17
34 -31 38 -31 18 0 155 -72 155 -81 0 -6 -9 -8 -20 -4 -10 3 -36 3 -56 -1 -35
-6 -36 -7 -14 -19 20 -11 20 -13 6 -27 -14 -15 -13 -17 7 -32 l22 -17 -25 7
c-14 4 -27 10 -30 14 -3 4 -31 19 -63 34 -35 16 -55 31 -51 38 4 7 3 8 -4 4
-6 -4 -21 -2 -33 5 -17 9 -19 13 -8 20 11 7 11 9 1 9 -7 0 -25 8 -40 19 -15
10 -67 45 -117 77 -49 32 -110 73 -135 92 -82 63 -284 290 -351 396 -15 22
-32 40 -38 38 -7 -1 -10 2 -6 8 9 14 -39 95 -67 115 -13 8 -17 15 -10 15 9 0
11 7 7 20 -4 11 -2 20 4 20 6 0 8 7 5 15 -4 8 -2 15 2 15 5 0 16 -21 24 -48z
m520 39 c6 -2 -23 -21 -31 -21 -4 0 -9 7 -13 15 -4 11 0 14 17 11 12 -3 24 -5
27 -5z m140 5 c0 -2 -7 -7 -16 -10 -8 -3 -12 -2 -9 4 6 10 25 14 25 6z m1700
-6 c0 -5 -4 -10 -9 -10 -6 0 -13 5 -16 10 -3 6 1 10 9 10 9 0 16 -4 16 -10z
m-2030 -9 c0 -12 43 -56 63 -64 19 -7 23 -27 6 -27 -12 0 -89 80 -89 92 0 4 5
8 10 8 6 0 10 -4 10 -9z m1240 -2 c0 -6 -4 -8 -9 -4 -6 3 -15 -4 -21 -16 -9
-15 -15 -18 -23 -10 -7 7 -7 14 1 23 13 16 52 21 52 7z m114 -13 c29 -7 28
-20 -2 -22 -10 -1 -29 -2 -44 -3 -18 -1 -28 -7 -30 -21 -2 -14 -7 -17 -18 -10
-13 8 -11 12 7 30 12 11 27 20 32 20 6 0 7 8 4 18 -5 14 -4 15 8 6 8 -6 27
-14 43 -18z m-899 4 c3 -5 -1 -10 -9 -10 -9 0 -16 5 -16 10 0 6 4 10 9 10 6 0
13 -4 16 -10z m1691 -21 c3 -6 -3 -18 -15 -28 -11 -10 -17 -21 -13 -25 12 -12
8 -66 -5 -66 -6 0 -13 -5 -15 -12 -2 -6 -14 -12 -25 -13 -20 -1 -21 2 -18 51
3 46 2 52 -13 48 -15 -5 -15 -4 1 9 13 11 15 17 7 22 -18 11 3 20 49 22 22 1
43 -3 47 -8z m-1626 -29 c-24 -15 -31 -11 -18 10 9 13 16 16 23 9 7 -7 5 -13
-5 -19z m-200 -2 c0 -4 -7 -8 -15 -8 -8 0 -15 4 -15 8 0 5 7 9 15 9 8 0 15 -4
15 -9z m363 -14 c-4 -14 -43 -9 -43 6 0 5 10 8 23 6 12 -1 21 -7 20 -12z m563
-9 c14 -13 13 -15 -5 -15 -21 0 -35 13 -24 24 9 9 13 8 29 -9z m-971 -15 c3
-5 2 -10 -4 -10 -5 0 -13 5 -16 10 -3 6 -2 10 4 10 5 0 13 -4 16 -10z m240
-22 c6 -4 2 -8 -7 -8 -10 0 -18 7 -18 17 0 9 3 12 8 7 4 -5 12 -12 17 -16z
m431 -15 c-10 -10 -19 5 -10 18 6 11 8 11 12 0 2 -7 1 -15 -2 -18z m819 -13
c-9 -15 -35 -12 -35 3 0 7 5 18 12 25 9 9 14 9 21 -3 4 -8 5 -20 2 -25z
m-1515 26 c0 -3 -4 -8 -10 -11 -5 -3 -10 -1 -10 4 0 6 5 11 10 11 6 0 10 -2
10 -4z m875 -6 c3 -6 -1 -13 -9 -16 -28 -11 -19 -35 9 -28 14 3 25 2 25 -3 0
-5 9 -9 21 -10 14 -1 19 3 15 13 -3 8 -1 14 4 14 6 0 10 -6 10 -14 0 -19 32
-30 42 -14 7 12 12 4 9 -16 -1 -4 9 -6 23 -2 14 3 27 3 30 -2 2 -4 19 -9 38
-10 65 -5 48 -19 -22 -18 -45 2 -74 7 -79 15 -5 7 -35 13 -80 15 -48 2 -68 -1
-61 -8 5 -5 10 -19 10 -30 0 -15 -6 -21 -24 -21 -13 0 -22 4 -18 9 3 5 -2 6
-12 3 -10 -4 -19 -1 -22 8 -3 7 -11 12 -18 9 -7 -3 -19 2 -26 11 -17 21 -2 37
60 64 28 12 50 26 50 31 0 13 17 13 25 0z m595 -4 c0 -2 -7 -7 -16 -10 -8 -3
-12 -2 -9 4 6 10 25 14 25 6z m-1310 -39 c0 -5 -4 -5 -10 -2 -5 3 -10 14 -10
23 0 15 2 15 10 2 5 -8 10 -19 10 -23z m770 29 c0 -3 -4 -8 -10 -11 -5 -3 -10
-1 -10 4 0 6 5 11 10 11 6 0 10 -2 10 -4z m-950 -10 c0 -3 -4 -8 -10 -11 -5
-3 -10 -1 -10 4 0 6 5 11 10 11 6 0 10 -2 10 -4z m241 -13 c13 -16 12 -17 -3
-4 -10 7 -18 15 -18 17 0 8 8 3 21 -13z m1035 5 c3 -4 -1 -8 -9 -8 -8 0 -21
-8 -28 -17 -12 -15 -12 -16 4 -10 9 3 17 2 17 -3 0 -6 10 -6 26 1 32 12 42 5
24 -17 -12 -13 -11 -17 1 -25 12 -7 11 -9 -3 -9 -9 0 -19 -6 -21 -12 -4 -10
-8 -9 -16 2 -9 13 -11 13 -11 -2 0 -10 -7 -18 -15 -18 -9 0 -19 8 -22 18 -10
24 -31 44 -42 38 -5 -3 -12 2 -15 11 -4 9 -2 20 5 23 8 6 8 9 0 14 -6 4 -9 12
-5 17 7 11 103 9 110 -3z m699 2 c3 -5 -3 -10 -14 -10 -12 0 -21 5 -21 10 0 6
6 10 14 10 8 0 18 -4 21 -10z m-965 -4 c0 -3 -4 -8 -10 -11 -5 -3 -10 -1 -10
4 0 6 5 11 10 11 6 0 10 -2 10 -4z m1040 0 c0 -3 -4 -8 -10 -11 -5 -3 -10 -1
-10 4 0 6 5 11 10 11 6 0 10 -2 10 -4z m-2025 -16 c3 -5 1 -10 -4 -10 -6 0
-11 5 -11 10 0 6 2 10 4 10 3 0 8 -4 11 -10z m65 -32 c0 -10 -4 -18 -10 -18
-5 0 -10 5 -10 11 0 5 -4 8 -8 5 -14 -8 -33 10 -27 26 5 13 11 13 31 4 13 -6
24 -19 24 -28z m647 26 c13 5 13 4 4 -8 -7 -8 -22 -12 -34 -9 -16 3 -18 2 -8
-5 10 -7 10 -11 1 -17 -13 -8 -17 -5 -20 15 -5 35 -1 41 21 30 11 -7 28 -9 36
-6z m-517 2 c0 -3 -4 -8 -10 -11 -5 -3 -10 -1 -10 4 0 6 5 11 10 11 6 0 10 -2
10 -4z m435 -15 c-3 -6 -14 -10 -23 -10 -15 1 -15 2 1 6 9 2 17 9 17 15 0 6 3
9 6 5 3 -3 3 -10 -1 -16z m860 9 c-3 -5 -13 -10 -21 -10 -8 0 -12 5 -9 10 3 6
13 10 21 10 8 0 12 -4 9 -10z m465 0 c0 -5 -4 -10 -10 -10 -5 0 -10 5 -10 10
0 6 5 10 10 10 6 0 10 -4 10 -10z m-1580 -52 c0 -17 -10 -22 -38 -19 -8 1 -20
-3 -27 -9 -15 -12 -35 -6 -35 11 0 6 4 8 8 5 5 -3 26 0 48 6 21 6 33 13 27 15
-7 3 -13 14 -13 26 0 20 0 20 15 1 8 -10 15 -27 15 -36z m-133 36 c-3 -3 -12
-4 -19 -1 -8 3 -5 6 6 6 11 1 17 -2 13 -5z m308 -3 c10 -17 -12 -21 -25 -6
-10 12 -10 15 3 15 9 0 18 -4 22 -9z m865 -21 c-21 -16 -21 -17 -4 -22 29 -6
52 2 57 20 2 9 4 -4 3 -30 -1 -27 -4 -48 -8 -48 -17 0 -7 -18 13 -23 30 -8 21
-43 -10 -39 -14 2 -21 0 -17 -7 4 -6 -8 -8 -34 -6 -22 2 -42 -1 -45 -6 -4 -5
14 -9 40 -9 53 0 85 -14 85 -36 0 -10 7 -14 18 -12 9 2 16 10 15 16 -2 7 4 12
12 12 21 0 19 -9 -7 -31 -20 -18 -20 -19 -2 -19 10 0 26 -5 34 -10 11 -7 -3
-10 -47 -10 -36 0 -63 4 -63 10 0 6 7 10 15 10 17 0 18 2 9 24 -4 11 -19 16
-43 16 -20 0 -43 6 -50 13 -11 10 -12 9 -6 -1 5 -10 1 -13 -16 -10 -15 2 -23
9 -22 18 2 9 -13 22 -37 33 -42 18 -45 23 -31 45 6 10 15 8 38 -12 34 -29 53
-35 33 -11 -11 13 -8 14 19 9 20 -4 31 -3 31 5 0 6 -7 11 -15 11 -8 0 -15 5
-15 11 0 8 -5 8 -15 -1 -12 -10 -16 -9 -21 4 -4 11 -13 15 -23 11 -13 -5 -13
-3 2 12 15 15 19 16 27 3 5 -8 12 -11 15 -8 10 10 -4 28 -21 28 -8 0 -14 5
-14 10 0 6 7 10 16 10 8 0 12 5 9 10 -4 6 -11 8 -16 5 -5 -4 -9 -2 -9 4 0 14
57 28 93 23 l30 -5 -23 -17z m-1255 11 c3 -5 1 -12 -5 -16 -5 -3 -10 1 -10 9
0 18 6 21 15 7z m565 -16 c7 -9 11 -17 8 -20 -2 -2 -12 4 -21 15 -9 11 -13 20
-8 20 5 0 14 -7 21 -15z m913 -4 c3 -13 1 -18 -9 -14 -7 2 -10 11 -7 19 7 19
10 18 16 -5z m-1663 -6 c0 -8 3 -15 8 -15 4 0 18 -9 31 -19 19 -14 21 -20 10
-26 -8 -5 -11 -5 -7 0 4 4 -7 16 -25 25 -31 17 -50 50 -28 50 6 0 11 -7 11
-15z m224 -7 c4 -10 8 -10 11 -2 7 13 46 6 57 -10 7 -11 -9 -36 -23 -36 -5 0
-6 7 -2 16 5 13 2 15 -14 10 -13 -4 -26 1 -38 14 -10 11 -13 20 -7 20 6 0 13
-6 16 -12z m399 -12 c9 -3 17 -11 17 -18 0 -9 -3 -10 -8 -2 -4 6 -19 14 -34
18 -16 3 -28 11 -28 16 0 7 6 7 18 1 9 -5 25 -12 35 -15z m-126 -16 c10 -11
26 -20 36 -20 10 0 16 -4 13 -8 -3 -5 -25 -4 -49 2 -35 8 -43 14 -39 28 6 23
18 23 39 -2z m307 11 c3 -5 -1 -12 -10 -15 -8 -3 -13 -2 -9 3 3 5 -1 12 -7 14
-8 4 -7 6 4 6 9 1 19 -3 22 -8z m791 -1 c3 -5 -2 -10 -12 -11 -10 0 -28 -2
-40 -5 -13 -2 -23 1 -23 7 0 6 9 9 20 6 11 -3 23 -1 26 4 7 12 21 11 29 -1z
m36 -23 c-8 -8 -11 -7 -11 4 0 20 13 34 18 19 3 -7 -1 -17 -7 -23z m819 13 c0
-5 -5 -10 -11 -10 -5 0 -7 5 -4 10 3 6 8 10 11 10 2 0 4 -4 4 -10z m-2075 -10
c3 -5 -1 -10 -10 -10 -9 0 -13 5 -10 10 3 6 8 10 10 10 2 0 7 -4 10 -10z m651
-4 c3 8 17 9 41 3 20 -4 39 -7 42 -7 25 2 61 -3 61 -10 0 -4 -29 -7 -65 -6
-63 1 -65 1 -59 -23 5 -18 3 -22 -10 -17 -9 3 -16 12 -16 20 0 8 -6 11 -15 7
-14 -5 -14 -8 0 -29 8 -13 11 -24 5 -24 -5 0 -10 5 -10 10 0 6 -7 10 -15 10
-19 0 -19 9 1 50 13 25 19 29 26 19 7 -10 11 -11 14 -3z m1468 -1 c3 -8 1 -15
-4 -15 -6 0 -10 7 -10 15 0 8 2 15 4 15 2 0 6 -7 10 -15z m-1789 -5 c3 -5 -1
-10 -9 -10 -9 0 -16 5 -16 10 0 6 4 10 9 10 6 0 13 -4 16 -10z m505 6 c0 -3
-4 -8 -10 -11 -5 -3 -10 -1 -10 4 0 6 5 11 10 11 6 0 10 -2 10 -4z m40 -6 c0
-5 -5 -10 -11 -10 -5 0 -7 5 -4 10 3 6 8 10 11 10 2 0 4 -4 4 -10z m-626 -58
c27 -23 57 -42 67 -42 10 0 20 -4 23 -8 3 -5 -8 -9 -24 -9 -18 0 -30 6 -30 13
0 7 -9 16 -21 19 -23 8 -78 64 -79 80 0 7 3 6 8 0 4 -6 29 -29 56 -53z m143
42 c-3 -3 -12 -4 -19 -1 -8 3 -5 6 6 6 11 1 17 -2 13 -5z m513 -24 c0 -5 -4
-10 -10 -10 -5 0 -10 5 -10 10 0 6 5 10 10 10 6 0 10 -4 10 -10z m-1471 -50
c26 -50 26 -48 -2 -43 -26 5 -57 45 -39 51 6 2 8 10 5 18 -12 32 16 11 36 -26z
m1101 10 c4 0 10 -6 13 -13 3 -8 -4 -14 -20 -15 -17 -1 -22 2 -16 11 4 6 7 21
6 32 -1 16 -1 16 3 3 3 -10 9 -18 14 -18z m40 20 c0 -5 -2 -10 -4 -10 -3 0 -8
5 -11 10 -3 6 -1 10 4 10 6 0 11 -4 11 -10z m-845 -9 c3 -5 1 -12 -5 -16 -5
-3 -10 1 -10 9 0 18 6 21 15 7z m365 -1 c0 -5 -4 -10 -9 -10 -6 0 -13 5 -16
10 -3 6 1 10 9 10 9 0 16 -4 16 -10z m-225 -10 c8 -13 -5 -13 -25 0 -13 8 -13
10 2 10 9 0 20 -4 23 -10z m635 6 c0 -3 -4 -8 -10 -11 -5 -3 -10 -1 -10 4 0 6
5 11 10 11 6 0 10 -2 10 -4z m345 -6 c3 -6 -1 -7 -9 -4 -18 7 -21 14 -7 14 6
0 13 -4 16 -10z m455 0 c0 -5 -10 -10 -22 -10 -19 0 -20 2 -8 10 19 13 30 13
30 0z m-126 -14 c-21 -15 -30 -14 -19 3 3 6 14 11 23 11 13 0 13 -2 -4 -14z
m-1469 -7 c10 -14 1 -21 -19 -13 -9 3 -13 10 -10 15 7 12 21 11 29 -2z m765
-8 c0 -5 -7 -8 -16 -7 -9 0 -19 -5 -21 -11 -3 -7 0 -13 6 -13 6 0 11 4 11 9 0
5 7 8 15 7 19 -3 15 -21 -4 -21 -8 0 -16 -5 -18 -12 -3 -8 4 -10 21 -7 19 3
26 0 26 -11 0 -24 -42 -18 -73 10 -29 27 -33 40 -17 50 6 3 10 1 10 -6 0 -7 9
-3 21 9 19 21 39 22 39 3z m185 -21 c3 -5 1 -10 -4 -10 -6 0 -11 5 -11 10 0 6
2 10 4 10 3 0 8 -4 11 -10z m62 -19 c10 -16 9 -22 -3 -32 -8 -6 -18 -8 -22 -4
-4 4 -1 10 6 12 21 8 13 24 -10 20 -13 -2 -17 -2 -10 0 6 3 12 9 12 14 0 15
15 10 27 -10z m-167 -1 c-20 -13 -33 -13 -25 0 3 6 14 10 23 10 15 0 15 -2 2
-10z m1595 0 c-3 -5 -12 -10 -18 -10 -7 0 -6 4 3 10 19 12 23 12 15 0z m52 4
c-3 -3 -12 -4 -19 -1 -8 3 -5 6 6 6 11 1 17 -2 13 -5z m-192 -24 c3 -5 1 -10
-4 -10 -6 0 -11 5 -11 10 0 6 2 10 4 10 3 0 8 -4 11 -10z m-1451 -21 c14 -7
27 -18 30 -25 8 -20 -7 -17 -31 5 -12 11 -24 17 -27 14 -3 -4 -6 -1 -6 5 0 15
3 15 34 1z m-599 -9 c3 -5 1 -10 -4 -10 -6 0 -11 5 -11 10 0 6 2 10 4 10 3 0
8 -4 11 -10z m85 -10 c0 -5 -2 -10 -4 -10 -3 0 -8 5 -11 10 -3 6 -1 10 4 10 6
0 11 -4 11 -10z m94 -30 c-5 -5 -15 -5 -24 0 -8 5 -11 12 -7 17 5 4 12 1 17
-7 8 -12 10 -11 11 5 0 12 3 15 6 7 3 -8 1 -18 -3 -22z m613 24 c-3 -3 -12 -4
-19 -1 -8 3 -5 6 6 6 11 1 17 -2 13 -5z m-667 -14 c0 -5 -4 -10 -9 -10 -6 0
-13 5 -16 10 -3 6 1 10 9 10 9 0 16 -4 16 -10z m-442 -13 c6 -5 12 -14 12 -19
0 -6 -6 -5 -15 2 -8 6 -18 9 -24 6 -5 -3 -21 0 -36 8 l-27 14 39 -1 c21 0 44
-5 51 -10z m1003 -7 c5 0 9 -4 9 -10 0 -15 -20 -12 -38 7 -16 16 -16 16 1 10
10 -4 23 -7 28 -7z m-732 -19 c9 -16 8 -18 -9 -14 -21 5 -25 15 -13 26 9 10
11 9 22 -12z m766 9 c3 -5 1 -10 -4 -10 -6 0 -11 5 -11 10 0 6 2 10 4 10 3 0
8 -4 11 -10z m-675 -16 c0 -8 -5 -12 -10 -9 -6 4 -8 11 -5 16 9 14 15 11 15
-7z m2080 0 c0 -2 -9 -4 -21 -4 -11 0 -18 4 -14 10 5 8 35 3 35 -6z m40 -4
c-8 -5 -19 -10 -25 -10 -5 0 -3 5 5 10 8 5 20 10 25 10 6 0 3 -5 -5 -10z
m-2061 -16 c6 4 11 2 11 -3 0 -6 -11 -11 -25 -11 -18 0 -23 4 -18 16 4 11 8
12 13 4 4 -7 13 -9 19 -6z m96 6 c3 -5 17 -10 31 -10 13 0 24 -4 24 -9 0 -5
-17 -8 -37 -6 -21 1 -37 8 -36 14 2 5 -4 8 -12 5 -8 -4 -15 -1 -15 5 0 14 37
15 45 1z m95 0 c0 -5 -2 -10 -4 -10 -3 0 -8 5 -11 10 -3 6 -1 10 4 10 6 0 11
-4 11 -10z m-270 -15 c8 -9 8 -15 2 -15 -18 0 -42 12 -42 21 0 14 26 10 40 -6z
m118 -7 c-2 -6 -10 -14 -16 -16 -7 -2 -10 2 -6 12 7 18 28 22 22 4z m434 -6
c9 -9 6 -12 -14 -12 -36 0 -63 11 -48 20 16 10 48 6 62 -8z m-277 -2 c3 -5 -1
-10 -9 -10 -8 0 -18 5 -21 10 -3 6 1 10 9 10 8 0 18 -4 21 -10z m-410 -10 c3
-5 -1 -10 -9 -10 -8 0 -18 5 -21 10 -3 6 1 10 9 10 8 0 18 -4 21 -10z m285 -4
c0 -3 -4 -8 -10 -11 -5 -3 -10 -1 -10 4 0 6 5 11 10 11 6 0 10 -2 10 -4z m26
-23 c-10 -10 -19 5 -10 18 6 11 8 11 12 0 2 -7 1 -15 -2 -18z m164 16 c0 -5
-4 -8 -9 -4 -5 3 -12 1 -16 -5 -4 -6 -11 -8 -16 -4 -5 3 -7 10 -4 15 8 13 45
11 45 -2z m173 -1 c18 -2 24 -18 6 -18 -6 0 -9 -6 -6 -14 4 -9 -3 -16 -15 -20
-21 -5 -21 -5 3 -26 22 -19 22 -20 2 -11 -27 14 -36 28 -24 36 12 7 3 35 -10
35 -5 0 -9 -7 -9 -16 0 -9 -6 -14 -12 -11 -7 2 -12 10 -10 17 2 9 -7 11 -32 7
-34 -5 -53 4 -42 21 4 6 83 6 149 0z m-283 -8 c0 -5 -4 -10 -10 -10 -5 0 -10
5 -10 10 0 6 5 10 10 10 6 0 10 -4 10 -10z m-155 -10 c3 -5 2 -10 -4 -10 -5 0
-13 5 -16 10 -3 6 -2 10 4 10 5 0 13 -4 16 -10z m205 -10 c0 -5 -2 -10 -4 -10
-3 0 -8 5 -11 10 -3 6 -1 10 4 10 6 0 11 -4 11 -10z m1797 4 c-3 -3 -12 -4
-19 -1 -8 3 -5 6 6 6 11 1 17 -2 13 -5z m-2099 -31 c16 -16 16 -16 -1 -10 -10
4 -26 7 -35 7 -15 0 -15 2 -2 10 20 13 19 13 38 -7z m127 7 c3 -5 1 -10 -4
-10 -6 0 -11 5 -11 10 0 6 2 10 4 10 3 0 8 -4 11 -10z m1762 4 c-3 -3 -12 -4
-19 -1 -8 3 -5 6 6 6 11 1 17 -2 13 -5z m-1439 -10 c21 -6 32 -34 12 -34 -5 0
-10 5 -10 11 0 5 -3 8 -7 6 -5 -3 -14 1 -21 9 -14 15 -9 17 26 8z m163 -34 c5
0 9 -7 9 -16 0 -14 -2 -14 -15 0 -8 8 -14 23 -14 33 1 17 2 17 6 1 2 -10 9
-18 14 -18z m-16 -42 c5 4 5 2 2 -4 -3 -6 -16 -10 -29 -8 -13 1 -27 3 -33 3
-5 1 -3 5 4 10 9 6 22 6 32 1 9 -5 20 -6 24 -2z m710 -58 c3 -6 -1 -7 -9 -4
-18 7 -21 14 -7 14 6 0 13 -4 16 -10z m-178 -36 c-3 -3 -12 -4 -19 -1 -8 3 -5
6 6 6 11 1 17 -2 13 -5z m-638 -51 c9 -6 29 -14 44 -17 16 -3 35 -13 43 -21 9
-8 20 -13 25 -10 4 3 20 -2 34 -11 14 -9 25 -13 25 -10 0 4 6 1 14 -6 8 -7 12
-16 10 -20 -8 -14 16 -19 37 -7 15 8 19 8 15 0 -4 -7 1 -11 13 -11 11 0 23 -5
26 -11 4 -6 34 -9 69 -8 35 1 67 0 72 -3 5 -3 25 -9 44 -13 19 -4 40 -11 45
-15 6 -5 26 -11 45 -13 19 -2 1 -3 -40 0 -41 2 -81 10 -89 16 -12 9 -13 9 -7
0 9 -16 1 -16 -26 -2 -12 6 -47 11 -77 11 -33 -1 -85 8 -126 22 -61 19 -70 25
-67 44 3 18 -2 22 -24 22 -37 0 -145 40 -151 57 -3 7 1 20 8 29 11 13 14 13
18 3 2 -8 11 -19 20 -26z m-349 17 c12 -8 11 -10 -7 -10 -13 0 -23 5 -23 10 0
13 11 13 30 0z m534 -16 c9 -3 16 -10 16 -14 0 -10 -38 -1 -46 11 -6 10 7 12
30 3z m-529 -35 c34 -10 37 -13 20 -19 -18 -7 -75 13 -75 25 0 7 11 6 55 -6z
m710 -60 c15 -15 -18 -10 -45 6 l-25 15 30 -6 c17 -4 34 -11 40 -15z m-286 -6
c7 -12 11 -13 11 -5 0 10 3 10 15 -2 19 -19 19 -23 -2 -30 -10 -3 -1 -3 20 0
24 3 37 1 33 -4 -3 -6 1 -12 8 -15 8 -3 16 -1 18 5 3 7 21 1 49 -15 45 -28 42
-36 -8 -15 -15 6 -38 10 -51 9 -12 -1 -37 2 -55 7 -17 6 -45 13 -62 17 -29 6
-29 7 -11 21 20 14 20 14 0 29 -19 14 -18 14 3 15 12 0 27 -8 32 -17z m556
-13 c3 -5 -4 -6 -15 -3 -11 3 -22 9 -25 13 -3 5 4 6 15 3 11 -3 22 -9 25 -13z
m-755 -24 c25 -8 36 -15 25 -15 -21 1 -98 27 -80 28 6 0 30 -6 55 -13z m129
-30 c11 -13 7 -13 -26 -5 -59 16 -61 17 -22 18 21 1 42 -5 48 -13z m53 -8 c-9
-9 -15 -9 -24 0 -9 9 -7 12 12 12 19 0 21 -3 12 -12z m68 -8 c0 -5 -5 -10 -11
-10 -5 0 -7 5 -4 10 3 6 8 10 11 10 2 0 4 -4 4 -10z m89 -16 c10 -9 -45 -3
-59 6 -11 7 -5 8 20 4 19 -4 37 -8 39 -10z"/>
<path d="M1910 4349 c0 -5 5 -7 10 -4 6 3 10 8 10 11 0 2 -4 4 -10 4 -5 0 -10
-5 -10 -11z"/>
<path d="M2018 4353 c7 -3 16 -2 19 1 4 3 -2 6 -13 5 -11 0 -14 -3 -6 -6z"/>
<path d="M2380 4278 c-24 -10 -24 -10 -5 -18 13 -5 24 -3 30 4 6 7 16 11 24 8
8 -3 11 0 7 7 -9 13 -23 13 -56 -1z"/>
<path d="M2530 4244 c0 -4 8 -16 17 -26 17 -19 16 -19 -12 -14 -17 4 -23 3
-15 0 8 -4 19 -13 23 -21 5 -8 16 -11 25 -9 23 8 79 -43 61 -55 -10 -6 -10
-11 -1 -22 7 -8 10 -21 6 -30 -5 -13 -1 -14 23 -8 15 5 27 14 25 20 -1 7 2 20
8 31 6 11 6 20 0 22 -14 5 -21 80 -8 95 17 21 -7 15 -26 -6 -14 -16 -21 -17
-41 -7 -14 6 -25 15 -25 19 0 5 -4 5 -10 2 -5 -3 -19 -1 -30 5 -11 6 -20 8
-20 4z"/>
<path d="M1695 4200 c-3 -5 1 -10 10 -10 9 0 13 5 10 10 -3 6 -8 10 -10 10 -2
0 -7 -4 -10 -10z"/>
<path d="M1701 4171 c-38 -7 -55 -31 -22 -31 28 0 71 18 71 30 0 5 -3 9 -7 9
-5 -1 -23 -4 -42 -8z"/>
<path d="M1904 4163 c-7 -26 -35 -30 -80 -13 -36 14 -40 7 -13 -19 14 -13 27
-17 33 -12 6 5 25 7 42 4 31 -5 31 -5 19 -41 -7 -20 -17 -38 -22 -39 -6 -2 -8
-15 -5 -29 3 -17 9 -23 19 -20 8 3 20 6 26 6 7 1 1 10 -13 21 -22 18 -22 21
-5 17 15 -2 19 2 18 17 -1 11 2 33 7 48 7 22 6 29 -6 34 -10 3 -12 8 -5 12 6
4 7 12 0 21 -7 12 -10 11 -15 -7z"/>
<path d="M1463 4120 c14 -11 30 -20 35 -20 6 0 8 9 5 20 -4 14 -14 20 -36 20
l-30 0 26 -20z"/>
<path d="M2048 4123 c6 -2 18 -2 25 0 6 3 1 5 -13 5 -14 0 -19 -2 -12 -5z"/>
<path d="M1640 4111 c0 -6 -7 -11 -17 -11 -9 0 -14 -3 -10 -6 9 -9 127 -13
127 -4 0 4 -15 10 -32 13 -18 3 -41 8 -50 12 -11 4 -18 3 -18 -4z"/>
<path d="M2490 4094 c0 -18 28 -30 41 -17 6 6 0 14 -16 21 -21 10 -25 9 -25
-4z"/>
<path d="M2550 4100 c0 -5 5 -10 10 -10 6 0 10 5 10 10 0 6 -4 10 -10 10 -5 0
-10 -4 -10 -10z"/>
<path d="M2713 4076 c5 -16 27 -19 27 -3 0 7 -7 14 -15 14 -9 0 -14 -5 -12
-11z"/>
<path d="M1984 4065 c-18 -15 -18 -15 5 -13 14 2 26 9 29 16 5 17 -10 15 -34
-3z"/>
<path d="M1534 4051 c3 -5 -1 -14 -9 -21 -22 -19 -18 -32 8 -24 12 3 24 8 25
9 7 7 -10 45 -19 45 -6 0 -8 -4 -5 -9z"/>
<path d="M2675 4040 c3 -5 1 -10 -4 -10 -6 0 -11 -4 -11 -9 0 -5 11 -4 24 2
26 12 25 27 0 27 -8 0 -12 -4 -9 -10z"/>
<path d="M1375 4030 c-3 -5 -15 -10 -26 -10 -23 0 -25 -15 -3 -24 18 -7 61 29
45 38 -5 4 -12 2 -16 -4z"/>
<path d="M1840 4020 c6 -11 15 -20 20 -20 14 0 1 28 -16 34 -12 4 -12 2 -4
-14z"/>
<path d="M2730 3995 c0 -16 16 -20 24 -6 3 5 -1 11 -9 15 -9 3 -15 0 -15 -9z"/>
<path d="M1837 3969 c3 -10 11 -15 19 -12 20 7 17 20 -5 26 -14 3 -17 0 -14
-14z"/>
<path d="M1696 3961 c10 -10 23 -16 27 -14 12 7 -13 33 -31 33 -13 0 -12 -3 4
-19z"/>
<path d="M1750 3970 c0 -5 7 -10 15 -10 8 0 15 -7 15 -16 0 -8 5 -12 10 -9 6
3 10 15 10 26 0 14 -7 19 -25 19 -14 0 -25 -4 -25 -10z"/>
<path d="M2055 3970 c-3 -5 -1 -10 4 -10 6 0 11 5 11 10 0 6 -2 10 -4 10 -3 0
-8 -4 -11 -10z"/>
<path d="M1455 3960 c-3 -5 -1 -10 4 -10 6 0 11 5 11 10 0 6 -2 10 -4 10 -3 0
-8 -4 -11 -10z"/>
<path d="M2110 3930 c0 -5 5 -10 10 -10 6 0 10 5 10 10 0 6 -4 10 -10 10 -5 0
-10 -4 -10 -10z"/>
<path d="M1880 3900 c0 -5 5 -10 11 -10 5 0 7 5 4 10 -3 6 -8 10 -11 10 -2 0
-4 -4 -4 -10z"/>
<path d="M1273 3885 c-8 -22 6 -33 17 -15 13 20 12 30 0 30 -6 0 -13 -7 -17
-15z"/>
<path d="M1244 3838 c-4 -6 -2 -14 4 -16 7 -2 12 -10 12 -18 0 -9 5 -12 10 -9
6 3 10 -1 10 -9 0 -9 5 -16 10 -16 13 0 9 32 -5 42 -6 5 -5 8 3 8 6 0 12 5 12
11 0 6 -7 9 -15 5 -8 -3 -15 -1 -15 4 0 14 -17 12 -26 -2z"/>
<path d="M1090 3790 c0 -5 5 -10 10 -10 6 0 10 5 10 10 0 6 -4 10 -10 10 -5 0
-10 -4 -10 -10z"/>
<path d="M1166 3785 c3 -7 16 -15 30 -18 18 -3 22 -1 14 8 -15 18 -50 26 -44
10z"/>
<path d="M1700 3785 c9 -11 10 -19 2 -27 -13 -13 -32 -2 -32 18 0 8 -7 14 -15
14 -9 0 -12 -6 -9 -15 4 -9 0 -15 -8 -15 -15 0 -21 -31 -22 -122 -1 -31 -3
-55 -5 -53 -7 7 -29 -20 -23 -29 3 -5 0 -6 -7 -2 -18 11 -49 -3 -57 -26 -5
-16 -8 -18 -15 -7 -10 16 -14 12 -23 -23 -5 -23 -3 -28 11 -26 54 4 73 -2 70
-23 -1 -12 4 -24 11 -26 7 -3 10 1 6 11 -6 17 4 20 30 10 12 -5 13 -10 5 -25
-5 -11 -7 -24 -4 -29 3 -6 0 -10 -8 -10 -8 0 -20 -7 -27 -15 -7 -8 -20 -15
-30 -15 -23 0 -54 36 -44 51 4 8 3 10 -4 5 -7 -4 -12 -17 -12 -30 0 -30 87
-77 101 -55 7 11 9 10 9 -3 0 -10 -5 -18 -11 -18 -5 0 -7 -5 -4 -10 4 -6 10
-8 15 -5 5 3 12 0 15 -5 5 -8 12 -7 23 3 10 8 30 14 45 12 22 -3 31 2 39 21 8
17 18 24 29 21 15 -4 16 -1 8 21 -12 31 -5 52 16 52 9 0 25 5 36 11 20 10 20
11 -1 46 -22 38 -20 54 5 33 9 -7 18 -10 22 -6 3 3 2 6 -4 6 -11 0 -22 27 -28
69 -5 31 -25 53 -25 27 0 -15 -3 -16 -15 -6 -10 9 -15 9 -15 1 0 -6 -14 -10
-32 -9 -18 1 -41 -2 -50 -6 -23 -10 -24 11 -2 35 17 19 11 39 -12 39 -8 0 -14
6 -14 14 0 8 -3 21 -6 30 -4 11 0 16 12 16 16 0 16 2 4 10 -12 8 -12 10 3 16
9 3 24 4 32 1 8 -4 17 -2 20 3 4 6 11 10 16 10 6 0 -2 -10 -17 -23 -20 -18
-25 -29 -20 -45 4 -12 15 -22 24 -22 12 0 13 -3 4 -12 -17 -17 -15 -48 3 -48
9 0 18 7 22 16 3 8 11 13 18 11 6 -3 12 1 12 9 0 8 -8 14 -18 14 -13 0 -16 5
-12 16 4 12 0 15 -18 12 -16 -2 -25 2 -27 15 -3 14 0 16 22 7 23 -8 28 -6 41
20 18 34 19 44 5 35 -5 -3 -10 -1 -10 4 0 6 -7 11 -15 11 -18 0 -20 16 -2 23
6 3 -1 6 -17 6 -25 1 -27 -1 -16 -14z m75 -235 c-16 -18 -16 -20 -2 -20 15 0
15 -2 -1 -17 -40 -40 -46 -42 -67 -26 -20 15 -20 15 1 9 21 -6 53 18 41 30 -3
4 4 15 16 25 29 24 34 24 12 -1z m-197 -32 c-6 -18 -28 -21 -28 -4 0 9 7 16
16 16 9 0 14 -5 12 -12z m99 -42 c0 -8 -6 -12 -14 -9 -7 3 -10 9 -7 14 8 14
21 11 21 -5z m75 -30 c9 -13 11 -32 2 -23 -3 3 -16 2 -28 -2 -11 -5 -30 -5
-40 -1 -18 6 -18 7 4 27 22 21 47 21 62 -1z m-97 -26 c-3 -5 4 -11 17 -11 22
-2 23 -2 1 -6 -12 -2 -24 -12 -26 -21 -2 -9 -4 -2 -4 16 0 17 4 32 9 32 5 0 6
-4 3 -10z m-12 -72 c9 0 17 -3 17 -7 0 -15 -36 -19 -53 -6 -22 16 -22 29 1 20
9 -4 25 -7 35 -7z m7 -38 c0 -5 -4 -10 -10 -10 -5 0 -10 5 -10 10 0 6 5 10 10
10 6 0 10 -4 10 -10z"/>
<path d="M1135 3750 c4 -6 11 -8 16 -5 14 9 11 15 -7 15 -8 0 -12 -5 -9 -10z"/>
<path d="M2395 3680 c3 -5 8 -10 11 -10 2 0 4 5 4 10 0 6 -5 10 -11 10 -5 0
-7 -4 -4 -10z"/>
<path d="M2350 3660 c0 -5 4 -10 9 -10 6 0 13 5 16 10 3 6 -1 10 -9 10 -9 0
-16 -4 -16 -10z"/>
<path d="M2415 3640 c-3 -5 -1 -10 4 -10 6 0 11 5 11 10 0 6 -2 10 -4 10 -3 0
-8 -4 -11 -10z"/>
<path d="M900 3618 c0 -7 5 -20 10 -28 8 -12 10 -9 10 13 0 15 -4 27 -10 27
-5 0 -10 -6 -10 -12z"/>
<path d="M1270 3540 c0 -5 5 -10 10 -10 6 0 10 5 10 10 0 6 -4 10 -10 10 -5 0
-10 -4 -10 -10z"/>
<path d="M1905 3510 c3 -5 8 -10 11 -10 2 0 4 5 4 10 0 6 -5 10 -11 10 -5 0
-7 -4 -4 -10z"/>
<path d="M1935 3511 c3 -6 12 -11 19 -11 22 0 56 -36 56 -59 0 -19 2 -20 20
-9 19 12 19 14 3 26 -10 7 -17 18 -15 23 1 6 -2 8 -8 4 -5 -3 -10 1 -10 10 0
10 5 13 13 9 6 -4 9 -3 4 1 -11 13 -90 18 -82 6z"/>
<path d="M1856 3470 c3 -14 13 -32 21 -42 8 -9 13 -24 11 -33 -2 -9 7 -24 20
-33 23 -15 23 -15 16 12 -5 20 -2 31 12 41 18 14 18 14 -1 9 -20 -5 -39 9 -71
51 -15 19 -15 19 -8 -5z"/>
<path d="M1930 3476 c0 -9 7 -12 20 -9 11 3 20 9 20 14 0 5 -9 9 -20 9 -11 0
-20 -6 -20 -14z"/>
<path d="M2150 3470 c0 -5 5 -10 11 -10 5 0 7 5 4 10 -3 6 -8 10 -11 10 -2 0
-4 -4 -4 -10z"/>
<path d="M1426 3454 c-3 -8 -9 -13 -13 -11 -5 3 -9 -6 -9 -19 -2 -18 1 -21 11
-11 19 20 37 57 26 57 -5 0 -12 -7 -15 -16z"/>
<path d="M1960 3449 c0 -5 5 -7 10 -4 6 3 10 8 10 11 0 2 -4 4 -10 4 -5 0 -10
-5 -10 -11z"/>
<path d="M1461 3436 c-8 -10 -10 -28 -5 -53 l8 -38 6 30 c3 17 2 32 -2 33 -14
6 -8 20 10 24 11 2 13 6 6 11 -7 4 -17 0 -23 -7z"/>
<path d="M2112 3425 c0 -16 2 -22 5 -12 2 9 2 23 0 30 -3 6 -5 -1 -5 -18z"/>
<path d="M1367 3410 c-3 -11 -1 -20 4 -20 5 0 9 9 9 20 0 11 -2 20 -4 20 -2 0
-6 -9 -9 -20z"/>
<path d="M1539 3397 c7 -7 18 -7 33 0 22 10 21 11 -10 10 -22 0 -30 -3 -23
-10z"/>
<path d="M1995 3388 c-6 -20 -8 -20 -12 -5 -9 33 -17 24 -58 -62 -21 -43 -7
-61 27 -36 l23 17 -22 -7 c-29 -8 -30 6 -2 23 12 8 18 9 14 3 -4 -7 4 -11 20
-11 21 0 25 4 20 18 -5 17 0 19 39 17 42 -1 43 0 34 21 -8 18 -52 44 -73 44
-2 0 -6 -10 -10 -22z m55 -18 c0 -5 -7 -10 -15 -10 -8 0 -15 5 -15 10 0 6 7
10 15 10 8 0 15 -4 15 -10z m-65 -20 c3 -5 1 -10 -4 -10 -6 0 -11 5 -11 10 0
6 2 10 4 10 3 0 8 -4 11 -10z"/>
<path d="M2115 3380 c3 -5 11 -10 16 -10 6 0 7 5 4 10 -3 6 -11 10 -16 10 -6
0 -7 -4 -4 -10z"/>
<path d="M1357 3373 c-4 -3 -7 -11 -7 -17 0 -6 5 -5 12 2 6 6 9 14 7 17 -3 3
-9 2 -12 -2z"/>
<path d="M1099 3355 c-2 -31 -11 -60 -20 -71 -7 -8 -7 -14 1 -19 5 -3 10 -4
10 -2 0 3 6 20 14 39 10 22 11 39 5 49 -5 7 -9 10 -10 4z"/>
<path d="M2045 3319 c-19 -7 -19 -8 3 -8 13 -1 21 -5 18 -10 -3 -5 9 -11 26
-15 24 -5 36 -1 50 14 19 20 19 20 -22 14 -25 -4 -45 -3 -49 3 -3 6 -14 7 -26
2z"/>
<path d="M2168 3303 c-29 -7 -20 -22 12 -21 17 1 29 6 27 11 -4 13 -16 16 -39
10z"/>
<path d="M1723 3285 c-8 -9 -9 -16 -3 -20 6 -3 13 1 16 10 9 21 2 26 -13 10z"/>
<path d="M1074 3180 c-1 -68 9 -81 26 -36 4 12 3 26 -2 33 -6 7 -8 20 -4 28 6
16 -2 45 -13 45 -3 0 -6 -31 -7 -70z"/>
<path d="M1520 3188 c0 -4 14 -8 30 -8 17 0 30 2 30 4 0 2 -13 6 -30 8 -16 3
-30 1 -30 -4z"/>
<path d="M1930 3099 c0 -5 5 -7 10 -4 6 3 10 8 10 11 0 2 -4 4 -10 4 -5 0 -10
-5 -10 -11z"/>
<path d="M1930 3070 c0 -5 5 -10 10 -10 6 0 10 5 10 10 0 6 -4 10 -10 10 -5 0
-10 -4 -10 -10z"/>
<path d="M1250 3019 c0 -5 5 -7 10 -4 6 3 10 8 10 11 0 2 -4 4 -10 4 -5 0 -10
-5 -10 -11z"/>
<path d="M990 2950 c0 -11 7 -20 15 -20 17 0 18 2 9 24 -9 23 -24 20 -24 -4z"/>
<path d="M1484 2915 c3 -10 -1 -15 -14 -15 -10 0 -22 -5 -25 -10 -4 -6 -10 -8
-14 -6 -4 3 -12 -4 -19 -15 -10 -15 -10 -19 2 -19 24 0 46 12 40 21 -3 5 9 9
26 9 21 0 30 4 27 13 -2 6 3 17 12 24 14 11 12 12 -13 13 -21 0 -27 -4 -22
-15z"/>
<path d="M1558 2863 c7 -3 16 -2 19 1 4 3 -2 6 -13 5 -11 0 -14 -3 -6 -6z"/>
<path d="M1162 2848 c-16 -16 4 -48 28 -48 25 0 25 6 1 35 -13 18 -21 21 -29
13z"/>
<path d="M2210 2820 c0 -11 4 -20 8 -20 5 0 14 -11 21 -24 7 -13 24 -29 38
-35 34 -15 26 -43 -16 -54 -24 -6 -31 -11 -23 -19 8 -8 22 -6 49 4 21 9 43 13
50 11 21 -7 23 14 3 35 -21 22 -27 37 -11 27 5 -3 13 0 17 6 5 9 0 10 -14 7
-12 -4 -25 -2 -28 4 -3 5 -11 7 -18 5 -8 -3 -11 4 -8 23 2 15 -1 31 -7 34 -7
4 -11 -1 -11 -13 0 -29 -17 -35 -25 -8 -4 12 -7 25 -6 30 1 4 -3 7 -9 7 -5 0
-10 -9 -10 -20z"/>
<path d="M850 2780 c0 -5 9 -14 20 -20 11 -6 20 -7 20 -3 0 5 -9 14 -20 21
-11 7 -20 8 -20 2z"/>
<path d="M1210 2782 c0 -4 5 -13 12 -20 9 -9 9 -12 0 -12 -7 0 -12 -7 -12 -15
0 -8 7 -15 15 -15 8 0 15 -6 15 -13 0 -16 67 -61 102 -70 19 -5 24 -2 25 13 1
11 -2 20 -7 20 -8 0 -51 36 -112 93 -31 29 -38 32 -38 19z"/>
<path d="M1527 2736 c-4 -10 -1 -13 9 -9 15 6 19 23 5 23 -5 0 -11 -7 -14 -14z"/>
<path d="M2230 2710 c0 -5 5 -10 10 -10 6 0 10 5 10 10 0 6 -4 10 -10 10 -5 0
-10 -4 -10 -10z"/>
<path d="M1200 2700 c0 -5 5 -10 10 -10 6 0 10 5 10 10 0 6 -4 10 -10 10 -5 0
-10 -4 -10 -10z"/>
<path d="M1600 2680 c-14 -4 -19 -8 -11 -9 7 -1 26 -12 43 -26 33 -28 53 -32
44 -10 -5 14 -4 14 16 0 31 -21 41 -19 33 8 -6 18 -5 20 6 10 7 -7 20 -13 28
-13 11 0 11 4 -3 19 -14 16 -23 18 -43 10 -31 -12 -33 -11 -30 4 2 14 -47 19
-83 7z"/>
<path d="M1406 2644 c-4 -11 4 -14 34 -14 29 0 38 4 34 13 -7 19 -61 19 -68 1z"/>
<path d="M1140 2640 c0 -5 4 -10 9 -10 6 0 13 5 16 10 3 6 -1 10 -9 10 -9 0
-16 -4 -16 -10z"/>
<path d="M1210 2632 c0 -20 33 -52 53 -51 15 1 17 3 6 6 -9 2 -22 15 -29 28
-13 24 -30 34 -30 17z"/>
<path d="M1270 2611 c8 -5 26 -12 40 -16 20 -6 23 -5 13 5 -7 7 -25 15 -40 16
-19 2 -23 0 -13 -5z"/>
<path d="M1431 2613 c-9 -4 0 -12 25 -24 62 -29 84 -23 42 12 -21 19 -41 22
-67 12z"/>
<path d="M1517 2609 c7 -7 15 -10 18 -7 3 3 -2 9 -12 12 -14 6 -15 5 -6 -5z"/>
<path d="M2425 2600 c3 -5 8 -10 11 -10 2 0 4 5 4 10 0 6 -5 10 -11 10 -5 0
-7 -4 -4 -10z"/>
<path d="M1545 2580 c28 -12 37 -12 30 0 -3 6 -16 10 -28 9 -21 0 -21 -1 -2
-9z"/>
<path d="M1710 2551 c0 -10 30 -24 37 -17 3 3 2 9 -2 15 -8 13 -35 15 -35 2z"/>
<path d="M2390 2551 c0 -5 5 -13 10 -16 6 -3 10 -2 10 4 0 5 -4 13 -10 16 -5
3 -10 2 -10 -4z"/>
<path d="M2075 2540 c-3 -5 -1 -10 4 -10 6 0 11 5 11 10 0 6 -2 10 -4 10 -3 0
-8 -4 -11 -10z"/>
<path d="M2227 2529 c7 -7 15 -10 18 -7 3 3 -2 9 -12 12 -14 6 -15 5 -6 -5z"/>
<path d="M1408 2523 c7 -3 16 -2 19 1 4 3 -2 6 -13 5 -11 0 -14 -3 -6 -6z"/>
<path d="M1780 2511 c0 -6 7 -11 15 -11 9 0 18 -7 21 -15 4 -8 13 -15 20 -15
16 0 37 -46 28 -61 -3 -5 -11 -6 -17 -2 -7 3 -4 -3 6 -15 19 -21 47 -20 47 2
0 7 12 18 26 25 17 8 24 17 20 27 -3 9 -9 27 -12 40 -3 13 -14 24 -23 24 -9 1
-42 3 -73 6 -39 4 -58 2 -58 -5z m141 -74 c-10 -9 -11 -8 -5 6 3 10 9 15 12
12 3 -3 0 -11 -7 -18z"/>
<path d="M2078 2513 c-23 -6 -23 -8 4 -51 17 -28 19 -38 10 -53 -7 -11 -8 -19
-2 -19 5 0 7 -6 4 -13 -3 -8 2 -20 11 -27 13 -11 18 -11 25 -1 5 9 9 10 14 2
4 -6 12 -9 17 -5 5 3 7 9 4 14 -3 5 -1 11 5 15 5 3 10 11 10 16 0 6 -4 7 -10
4 -5 -3 -10 2 -10 11 0 24 -29 54 -46 47 -17 -6 -18 9 -2 25 9 9 8 12 -5 12
-10 0 -14 5 -11 15 4 8 5 14 3 14 -2 -1 -12 -3 -21 -6z"/>
<path d="M1250 2478 c0 -5 7 -8 15 -8 8 0 15 -6 15 -12 0 -9 4 -8 10 2 14 22
13 25 -15 25 -14 0 -25 -3 -25 -7z"/>
<path d="M2360 2465 c0 -8 5 -15 10 -15 6 0 10 7 10 15 0 8 -4 15 -10 15 -5 0
-10 -7 -10 -15z"/>
<path d="M1664 2445 c-7 -18 3 -35 22 -35 15 0 17 9 8 34 -8 20 -23 21 -30 1z"/>
<path d="M1540 2425 c-16 -19 0 -19 36 0 l29 15 -26 0 c-15 0 -32 -7 -39 -15z"/>
<path d="M1743 2404 c-5 -15 29 -53 48 -54 14 0 -4 47 -22 58 -16 10 -21 10
-26 -4z"/>
<path d="M2420 2413 c0 -14 19 -38 25 -32 8 8 -5 39 -16 39 -5 0 -9 -3 -9 -7z"/>
<path d="M1930 2372 c0 -7 -4 -11 -9 -8 -14 9 -41 -4 -41 -19 0 -21 87 -88
105 -81 8 3 15 10 15 15 0 5 11 12 25 15 14 4 25 13 25 21 0 8 5 15 10 15 6 0
10 6 10 14 0 20 -34 29 -82 21 -29 -5 -43 -3 -49 6 -7 11 -9 11 -9 1z"/>
<path d="M2430 2355 c0 -8 2 -15 4 -15 2 0 6 7 10 15 3 8 1 15 -4 15 -6 0 -10
-7 -10 -15z"/>
<path d="M1681 2339 c5 -11 14 -17 20 -14 15 10 10 22 -11 28 -17 4 -18 2 -9
-14z"/>
<path d="M1820 2351 c0 -5 -7 -17 -16 -25 -14 -15 -14 -16 5 -16 16 0 21 6 21
25 0 14 -2 25 -5 25 -3 0 -5 -4 -5 -9z"/>
<path d="M1390 2303 c0 -4 5 -15 10 -23 8 -13 10 -13 10 2 0 9 -4 20 -10 23
-5 3 -10 3 -10 -2z"/>
<path d="M2005 2259 c-11 -16 -1 -19 13 -3 7 8 8 14 3 14 -5 0 -13 -5 -16 -11z"/>
<path d="M2037 2069 c7 -7 15 -10 18 -7 3 3 -2 9 -12 12 -14 6 -15 5 -6 -5z"/>
<path d="M887 3891 c-4 -17 -3 -21 5 -13 5 5 8 16 6 23 -3 8 -7 3 -11 -10z"/>
<path d="M2795 3710 c3 -5 11 -10 16 -10 6 0 7 5 4 10 -3 6 -11 10 -16 10 -6
0 -7 -4 -4 -10z"/>
<path d="M3120 3111 c0 -5 5 -13 10 -16 6 -3 10 -2 10 4 0 5 -4 13 -10 16 -5
3 -10 2 -10 -4z"/>
<path d="M3145 2940 c-11 -5 -14 -9 -7 -9 7 -1 10 -5 7 -11 -11 -18 10 -10 28
10 18 21 8 25 -28 10z"/>
<path d="M3075 2880 c-20 -9 -17 -11 20 -14 11 0 19 -7 18 -13 -2 -7 1 -13 6
-13 5 0 9 11 9 25 0 26 -16 31 -53 15z"/>
<path d="M3010 2840 c0 -6 7 -10 15 -10 8 0 15 2 15 4 0 2 -7 6 -15 10 -8 3
-15 1 -15 -4z"/>
<path d="M2951 2804 c0 -11 3 -14 6 -6 3 7 2 16 -1 19 -3 4 -6 -2 -5 -13z"/>
<path d="M2951 2557 c-13 -21 -12 -21 5 -5 10 10 16 20 13 22 -3 3 -11 -5 -18
-17z"/>
<path d="M597 2879 c-10 -11 -17 -30 -15 -42 2 -18 7 -15 25 21 24 45 20 53
-10 21z"/>
<path d="M3794 2958 c-4 -7 -4 -10 1 -6 4 4 14 3 22 -3 10 -9 13 -8 13 5 0 19
-26 22 -36 4z"/>
<path d="M620 2060 c0 -5 5 -10 10 -10 6 0 10 5 10 10 0 6 -4 10 -10 10 -5 0
-10 -4 -10 -10z"/>
<path d="M670 2021 c0 -5 7 -14 15 -21 16 -14 18 -10 9 14 -6 17 -24 22 -24 7z"/>
<path d="M731 1948 c-16 -25 -2 -43 28 -33 26 8 26 17 3 38 -16 15 -19 15 -31
-5z"/>
<path d="M3275 1999 c-4 -6 -5 -12 -2 -15 2 -3 7 2 10 11 7 17 1 20 -8 4z"/>
<path d="M3325 1960 c3 -5 11 -10 16 -10 6 0 7 5 4 10 -3 6 -11 10 -16 10 -6
0 -7 -4 -4 -10z"/>
<path d="M2980 1951 c0 -5 -9 -11 -20 -14 -26 -7 -26 -24 1 -32 24 -8 24 -8
33 28 4 16 2 27 -4 27 -5 0 -10 -4 -10 -9z"/>
<path d="M3160 1936 c0 -8 12 -28 26 -43 14 -15 22 -22 18 -14 -5 11 -3 13 9
8 24 -9 21 6 -8 37 -27 29 -45 34 -45 12z"/>
<path d="M3260 1931 c-12 -24 -13 -31 -1 -31 5 0 11 9 14 21 4 13 10 18 18 13
8 -4 10 -3 5 4 -11 17 -24 15 -36 -7z"/>
<path d="M3160 1853 c0 -13 5 -23 10 -23 13 0 13 11 0 30 -8 12 -10 11 -10 -7z"/>
<path d="M3446 1681 c-4 -6 -13 -8 -21 -4 -16 5 -22 -22 -7 -31 9 -6 46 33 39
41 -3 2 -8 0 -11 -6z"/>
<path d="M3808 1633 c0 -10 -1 -24 -1 -31 1 -6 -11 -22 -26 -35 -40 -34 -50
-56 -39 -87 5 -15 15 -27 23 -27 18 0 18 2 3 26 -6 10 -8 27 -4 37 7 19 8 19
18 0 8 -14 7 -21 -3 -27 -10 -6 -7 -9 11 -9 14 0 30 4 36 8 16 11 24 41 13 47
-5 4 -12 -1 -15 -9 -3 -9 -12 -16 -20 -16 -33 0 -2 36 50 59 22 9 26 15 17 21
-8 4 -11 15 -8 24 5 12 0 16 -19 16 -14 0 -22 4 -19 10 3 6 1 10 -4 10 -6 0
-12 -8 -13 -17z"/>
<path d="M3950 1569 c0 -5 5 -7 10 -4 6 3 10 8 10 11 0 2 -4 4 -10 4 -5 0 -10
-5 -10 -11z"/>
<path d="M3965 1530 c3 -5 13 -10 21 -10 8 0 14 5 14 10 0 6 -9 10 -21 10 -11
0 -17 -4 -14 -10z"/>
<path d="M3927 1516 c-3 -7 -1 -19 4 -27 8 -12 10 -12 19 1 13 20 12 27 -4 33
-8 3 -17 0 -19 -7z"/>
<path d="M3996 1445 c-3 -8 -1 -15 4 -15 6 0 10 7 10 15 0 8 -2 15 -4 15 -2 0
-6 -7 -10 -15z"/>
<path d="M3687 1436 c-4 -10 -1 -13 9 -9 7 3 14 9 14 14 0 14 -17 10 -23 -5z"/>
<path d="M3555 1360 c-3 -5 -4 -14 -1 -19 4 -5 1 -12 -4 -14 -6 -3 -5 -4 1 -3
7 1 19 12 27 24 13 20 13 22 -1 22 -9 0 -19 -4 -22 -10z"/>
<path d="M3370 1180 c0 -5 7 -10 15 -10 8 0 15 5 15 10 0 6 -7 10 -15 10 -8 0
-15 -4 -15 -10z"/>
<path d="M2980 1140 c0 -5 5 -10 10 -10 6 0 10 5 10 10 0 6 -4 10 -10 10 -5 0
-10 -4 -10 -10z"/>
<path d="M3220 1143 c0 -5 12 -16 25 -26 29 -21 36 -2 8 19 -20 15 -33 18 -33
7z"/>
<path d="M2950 1130 c0 -5 5 -10 11 -10 5 0 7 5 4 10 -3 6 -8 10 -11 10 -2 0
-4 -4 -4 -10z"/>
<path d="M3195 1130 c-3 -5 -1 -10 4 -10 6 0 11 5 11 10 0 6 -2 10 -4 10 -3 0
-8 -4 -11 -10z"/>
<path d="M3073 1123 c18 -5 24 -23 7 -23 -5 0 -10 -4 -10 -8 0 -4 15 -8 34 -8
20 0 32 4 29 10 -4 5 1 7 11 3 12 -5 16 -3 13 5 -2 7 -16 13 -30 12 -15 -1
-27 3 -27 7 0 5 -10 8 -22 8 -17 -1 -19 -2 -5 -6z"/>
<path d="M2995 1080 c3 -6 1 -10 -4 -10 -6 0 -11 -4 -11 -10 0 -5 9 -10 20
-10 24 0 27 25 4 34 -8 3 -12 2 -9 -4z"/>
<path d="M2504 1051 c3 -5 15 -7 26 -4 28 7 25 13 -6 13 -14 0 -23 -4 -20 -9z"/>
<path d="M2998 947 c-21 -11 -35 -23 -33 -27 2 -4 -21 -19 -53 -34 -31 -15
-65 -32 -75 -38 -25 -13 -32 -4 -12 15 14 15 7 16 -79 13 -106 -5 -126 -11
-99 -31 17 -13 16 -14 -4 -8 -19 4 -23 1 -22 -18 0 -22 1 -23 9 -4 7 16 9 17
9 3 1 -14 10 -17 54 -14 28 1 59 5 67 9 34 13 46 14 63 5 21 -11 23 -30 2 -22
-8 4 -15 1 -15 -5 0 -6 4 -11 10 -11 5 0 7 -7 4 -15 -5 -11 2 -15 27 -16 28 0
31 -2 14 -9 -16 -7 -12 -9 20 -11 57 -2 69 -5 180 -33 102 -26 123 -26 89 -1
-19 14 -19 14 1 15 l20 1 -20 9 c-30 13 -38 12 -31 -5 4 -12 2 -13 -12 -7 -9
5 -32 12 -51 16 -19 3 -44 17 -57 31 -16 17 -34 25 -57 25 -19 0 -46 6 -60 13
l-26 13 25 19 c13 10 22 20 19 23 -7 7 72 48 123 62 23 7 42 17 42 22 0 4 7 8
15 8 8 0 15 7 15 15 0 21 -54 17 -102 -8z"/>
<path d="M2615 911 c-17 -7 -16 -9 10 -14 19 -3 35 0 45 9 9 8 10 14 3 14 -6
0 -14 -6 -16 -12 -4 -10 -6 -10 -6 0 -1 13 -7 14 -36 3z"/>
<path d="M3070 890 c0 -5 9 -10 21 -10 11 0 17 5 14 10 -3 6 -13 10 -21 10 -8
0 -14 -4 -14 -10z"/>
<path d="M2441 874 c6 -7 8 -18 4 -24 -3 -5 1 -10 9 -10 9 0 16 8 16 17 0 15
1 15 13 -2 11 -13 16 -15 22 -6 10 18 -5 30 -43 35 -26 3 -30 1 -21 -10z"/>
<path d="M2510 881 c0 -6 10 -11 21 -11 18 0 19 -2 9 -15 -7 -8 -8 -15 -3 -15
5 0 16 9 25 19 16 18 16 20 0 19 -9 0 -25 3 -34 7 -11 4 -18 3 -18 -4z"/>
<path d="M3030 870 c-12 -8 -11 -10 8 -10 12 0 22 5 22 10 0 13 -11 13 -30 0z"/>
<path d="M2400 860 c0 -5 7 -7 15 -4 8 4 15 8 15 10 0 2 -7 4 -15 4 -8 0 -15
-4 -15 -10z"/>
<path d="M2958 863 c7 -3 16 -2 19 1 4 3 -2 6 -13 5 -11 0 -14 -3 -6 -6z"/>
<path d="M2973 821 c-18 -9 -33 -19 -33 -23 0 -11 72 -9 90 2 10 6 11 10 3 10
-7 0 -13 7 -13 15 0 18 -5 17 -47 -4z"/>
<path d="M2745 755 c28 -12 51 -21 53 -20 2 2 -1 13 -8 24 -8 16 -20 21 -53
20 l-42 -1 50 -23z"/>
<path d="M2260 760 c0 -5 4 -10 9 -10 6 0 13 5 16 10 3 6 -1 10 -9 10 -9 0
-16 -4 -16 -10z"/>
<path d="M2305 750 c-16 -7 -17 -9 -3 -9 9 -1 20 4 23 9 7 11 7 11 -20 0z"/>
<path d="M2620 700 c0 -5 10 -10 23 -10 18 0 19 2 7 10 -19 13 -30 13 -30 0z"/>
<path d="M1990 650 c0 -5 5 -10 11 -10 5 0 7 5 4 10 -3 6 -8 10 -11 10 -2 0
-4 -4 -4 -10z"/>
<path d="M3295 650 c-4 -6 5 -10 19 -10 14 0 26 5 26 10 0 6 -9 10 -19 10 -11
0 -23 -4 -26 -10z"/>
<path d="M1415 1590 c3 -5 10 -10 16 -10 5 0 9 5 9 10 0 6 -7 10 -16 10 -8 0
-12 -4 -9 -10z"/>
<path d="M1865 1464 c-25 -25 -9 -29 21 -5 18 14 22 21 11 21 -9 0 -23 -7 -32
-16z"/>
<path d="M2606 1481 c-3 -5 1 -14 9 -21 12 -10 15 -10 15 3 0 19 -16 31 -24
18z"/>
<path d="M2510 1455 c-10 -12 -10 -15 3 -15 19 0 31 16 18 24 -5 3 -14 -1 -21
-9z"/>
<path d="M2570 1441 c0 -12 6 -21 16 -21 9 0 14 7 12 17 -5 25 -28 28 -28 4z"/>
<path d="M2940 1396 c0 -2 7 -7 16 -10 8 -3 12 -2 9 4 -6 10 -25 14 -25 6z"/>
<path d="M2995 1390 c-3 -5 -1 -10 4 -10 6 0 11 5 11 10 0 6 -2 10 -4 10 -3 0
-8 -4 -11 -10z"/>
<path d="M3299 1393 c-7 -13 -19 -23 -26 -23 -6 0 -10 -7 -9 -15 3 -19 16 -32
16 -16 0 7 10 21 21 30 12 10 20 24 17 32 -3 10 -8 8 -19 -8z"/>
<path d="M1470 600 c8 -5 20 -10 25 -10 6 0 3 5 -5 10 -8 5 -19 10 -25 10 -5
0 -3 -5 5 -10z"/>
<path d="M2020 1260 c-9 -6 -10 -10 -3 -10 6 0 15 5 18 10 8 12 4 12 -15 0z"/>
<path d="M2686 1147 c3 -10 9 -15 12 -12 3 3 0 11 -7 18 -10 9 -11 8 -5 -6z"/>
</g>
</svg>
